<svg xmlns="http://www.w3.org/2000/svg" xmlns:xlink="http://www.w3.org/1999/xlink" viewBox="0 0 1371.33 855.23"><defs><linearGradient id="linear-gradient" x1="685.39" x2="685.39" y2="855.23" gradientUnits="userSpaceOnUse"><stop offset="0" stop-color="#f0f0f1"/><stop offset="1" stop-color="#f2f2f2"/></linearGradient><linearGradient id="linear-gradient-2" x1="685.39" y1="2.85" x2="685.39" y2="852.38" gradientUnits="userSpaceOnUse"><stop offset="0" stop-color="#f0f0f1"/><stop offset="1" stop-color="#e6e6e6"/></linearGradient></defs><title>Belts &amp;amp; Ranking</title><g style="isolation:isolate"><g id="Layer_20" data-name="Layer 20"><path d="M1357.35,855.23H13.44c-7.57,0-13.71-5.11-13.71-11.41V11.4C-.27,5.11,5.87,0,13.44,0H1357.35c7.57,0,13.71,5.11,13.71,11.4V843.82C1371.06,850.12,1364.92,855.23,1357.35,855.23Z" style="fill:url(#linear-gradient)"/><path d="M13.44,852.38c-5.67,0-10.28-3.84-10.28-8.56V11.4c0-4.71,4.61-8.55,10.28-8.55H1357.35c5.67,0,10.28,3.84,10.28,8.55V843.82c0,4.72-4.61,8.56-10.28,8.56Z" style="fill:url(#linear-gradient-2)"/><rect x="13.44" y="17.11" width="1343.9" height="826.72" style="fill:#fff"/><g style="opacity:0.2;mix-blend-mode:multiply"><path d="M1281.92,68.42c-5.67,0-10.28-3.84-10.28-8.55V25.66c0-4.72,4.61-8.55,10.28-8.55h68.57c5.67,0,10.28,3.83,10.28,8.55V59.87c0,4.71-4.61,8.55-10.28,8.55Z" style="fill:#fff;opacity:0"/></g><g style="opacity:0.2;mix-blend-mode:multiply"><path d="M1185.93,68.42c-5.67,0-10.29-3.84-10.29-8.55V25.66c0-4.72,4.62-8.55,10.29-8.55h68.57c5.67,0,10.28,3.83,10.28,8.55V59.87c0,4.71-4.61,8.55-10.28,8.55Z" style="fill:#fff;opacity:0"/></g><path d="M186.59,644.24c8.68-4,21.92-6.07,35-6.07h.15c13.33,0,26.75,2.25,35.51,6.44,3.85-1.56,7-4.83,9.07-7.54a10.88,10.88,0,0,0-2.18-2.66c-4.41-4.18-22.39-10-42.47-10-19.51,0-38.42,6.07-42.48,10-.59.57-1.64,1.83-1.64,2.32A21.6,21.6,0,0,0,186.59,644.24Z" style="fill:#f7941e"/><path d="M207.07,650.26l-.86-.6c-13.85-1.37-25.15-5-29.15-12.71.1,4.74.46,16.46,2.64,18.78s7.61,4.7,15.12,6.65c5.69-4,10.85-7.6,14.79-10.33Z" style="fill:#f7941e"/><path d="M219.78,647.25c5.19-.16,11.72.62,13.93,3.89,2.52,3.75.82,13.91-.62,15.43-.61.64-3.91,3.1-14.48,4.18C222.79,666.34,228.72,655.63,219.78,647.25Z" style="fill:#f7941e"/><path d="M225.52,647.64c-.58-.14-1.17-.26-1.77-.35a17,17,0,0,0-2.47,0,14.83,14.83,0,0,1,3.85,9.31,17.11,17.11,0,0,1-.57,5l7.08,5a4.17,4.17,0,0,0,.86-.63c1.07-1.13,2.42-8.77,1.21-12.91-4-2.76-6.84-4.69-7.9-5.33A2,2,0,0,0,225.52,647.64Z" style="fill:#f7941e"/><path d="M223.52,656.67a13.54,13.54,0,0,0-4.26-9.18c-4.12.49-9,1.59-11.73,2.12,5.66,4,10.85,7.63,15.62,11A14.88,14.88,0,0,0,223.52,656.67Z" style="fill:#f7941e"/><path d="M230.86,667.08l-6.53-4.64a23.73,23.73,0,0,1-3.79,7.28C226.11,669,229.21,667.89,230.86,667.08Z" style="fill:#f7941e"/><path d="M218,670.2a21.6,21.6,0,0,0,4.91-8.74l-1.36-1c-4,2.76-7.44,5.49-12.29,8.7,2.11.48,5.08,1.28,7.93,1.86Z" style="fill:#f7941e"/><path d="M236.72,649.85l-1.32,0a15.85,15.85,0,0,1-1.7-.12,11.27,11.27,0,0,1,1,1.52,8.72,8.72,0,0,1,.7,2c3.72,2.58,8.27,5.76,13.22,9.24,7.93-2,13.9-4.55,16-6.82s2-13.51,2.11-18.24C262.66,645.44,250.91,648.72,236.72,649.85Z" style="fill:#f7941e"/><path d="M177.62,691.34c6.44-4.83,14.17-10.51,24.37-17.84,5.52-4,11.76-8.42,18.92-13.48l-10.59-7.48c-4.52,3.12-10.69,7.44-17.43,12.17-8.53,6-18,12.68-26.18,18.47Z" style="fill:#f7941e"/><path d="M265.13,691l12.68-6.89c-8.19-5.78-17.79-12.57-26.53-18.72-5.83-4.1-11.28-7.92-15.66-11h0a25.56,25.56,0,0,1-.06,6.65v0c0,.3-.08.6-.13.89h0c-.05.29-.1.57-.16.85v.08c-.06.26-.11.51-.17.75v0l-.18.71,0,.12q-.09.32-.18.6s0,0,0,0c-.07.2-.14.39-.21.56a.61.61,0,0,1,0,.12,4.68,4.68,0,0,1-.2.45l0,0a2.36,2.36,0,0,1-.22.39l-.06.09a2.37,2.37,0,0,1-.23.3l-.08.08,0,0-.29.25h0l-.22.16h0c3.48,2.48,6.7,4.8,9.71,7C252,681.24,259.11,686.48,265.13,691Z" style="fill:#f7941e"/><path d="M186.59,757c8.68-4,21.92-6.07,35-6.07h.15c13.33,0,26.75,2.25,35.51,6.44,3.85-1.56,7-4.83,9.07-7.54a10.88,10.88,0,0,0-2.18-2.66c-4.41-4.18-22.39-10-42.48-10-19.5,0-38.41,6.07-42.47,10-.59.57-1.64,1.83-1.64,2.32A21.6,21.6,0,0,0,186.59,757Z" style="fill:#231f20"/><path d="M207.07,763l-.86-.6c-13.85-1.37-25.15-5-29.15-12.71.1,4.73.46,16.46,2.64,18.78s7.61,4.7,15.12,6.65c5.69-4,10.85-7.6,14.79-10.33Z" style="fill:#231f20"/><path d="M219.78,760c5.19-.16,11.72.62,13.93,3.89,2.52,3.75.82,13.91-.62,15.43-.61.64-3.91,3.1-14.48,4.18C222.79,779.05,228.72,768.34,219.78,760Z" style="fill:#231f20"/><path d="M225.52,760.35c-.58-.14-1.17-.26-1.77-.35a17,17,0,0,0-2.47,0,14.83,14.83,0,0,1,3.85,9.3,17.17,17.17,0,0,1-.57,5q3.7,2.63,7.08,5a4.17,4.17,0,0,0,.86-.63c1.07-1.13,2.42-8.77,1.21-12.91-4-2.76-6.84-4.69-7.9-5.33A2,2,0,0,0,225.52,760.35Z" style="fill:#231f20"/><path d="M223.52,769.38a13.54,13.54,0,0,0-4.26-9.18c-4.12.49-9,1.58-11.73,2.12,5.66,4,10.85,7.63,15.62,11A14.88,14.88,0,0,0,223.52,769.38Z" style="fill:#231f20"/><path d="M230.86,779.79l-6.54-4.64a23.61,23.61,0,0,1-3.78,7.28C226.11,781.71,229.21,780.6,230.86,779.79Z" style="fill:#231f20"/><path d="M218,782.91a21.49,21.49,0,0,0,4.92-8.74l-1.36-1c-4,2.76-7.44,5.49-12.29,8.7,2.11.48,5.08,1.28,7.93,1.86Z" style="fill:#231f20"/><path d="M236.72,762.56l-1.32,0c-.88,0-1.7-.12-1.7-.12a11.27,11.27,0,0,1,1,1.52,8.72,8.72,0,0,1,.7,2c3.72,2.58,8.27,5.76,13.22,9.24,7.93-2,13.9-4.55,16-6.82s2-13.51,2.11-18.24C262.66,758.15,250.91,761.43,236.72,762.56Z" style="fill:#231f20"/><path d="M177.62,804.05c6.44-4.84,14.17-10.51,24.37-17.84,5.52-4,11.76-8.42,18.92-13.48l-10.59-7.48c-4.52,3.12-10.69,7.44-17.43,12.17-8.53,6-18,12.68-26.18,18.47Z" style="fill:#231f20"/><path d="M265.13,803.7l12.68-6.88C269.62,791,260,784.25,251.28,778.1c-5.83-4.1-11.28-7.92-15.66-11h0a25.56,25.56,0,0,1-.06,6.65v0c0,.3-.08.6-.13.89h0c-.05.29-.1.57-.16.84a.29.29,0,0,1,0,.09c-.05.26-.1.51-.16.75v0l-.18.71a.56.56,0,0,0,0,.12l-.18.6,0,0c-.07.2-.14.39-.21.56a.61.61,0,0,1,0,.12,4.68,4.68,0,0,1-.2.45l0,0a2.85,2.85,0,0,1-.22.39l-.06.09a1.73,1.73,0,0,1-.23.29l-.08.09h0l-.29.26h0l-.22.16h0c3.48,2.48,6.7,4.8,9.71,7C252,794,259.11,799.19,265.13,803.7Z" style="fill:#231f20"/><path d="M187,531.69c8.57-4,21.66-6,34.57-6h.14c13.18,0,26.45,2.22,35.11,6.37,3.8-1.55,6.92-4.78,9-7.46a10.59,10.59,0,0,0-2.15-2.63c-4.37-4.13-22.13-9.93-42-9.93-19.28,0-38,6-42,9.93-.57.56-1.61,1.81-1.61,2.3A21.33,21.33,0,0,0,187,531.69Z" style="fill:#00a651"/><path d="M207.25,537.64l-.85-.6c-13.7-1.35-24.87-4.91-28.82-12.56.1,4.68.46,16.27,2.61,18.57s7.52,4.64,14.95,6.57c5.63-4,10.72-7.52,14.62-10.21Z" style="fill:#00a651"/><path d="M219.81,534.66c5.13-.16,11.58.61,13.77,3.85,2.49,3.7.81,13.74-.62,15.25-.59.64-3.86,3.06-14.31,4.14C222.78,553.53,228.65,543,219.81,534.66Z" style="fill:#00a651"/><path d="M225.48,535.05c-.57-.14-1.16-.25-1.74-.35a20.11,20.11,0,0,0-2.45,0,14.62,14.62,0,0,1,3.8,9.2,16.7,16.7,0,0,1-.56,5l7,5a4.5,4.5,0,0,0,.85-.62c1.05-1.12,2.38-8.67,1.19-12.76-3.94-2.73-6.76-4.64-7.81-5.27A2,2,0,0,0,225.48,535.05Z" style="fill:#00a651"/><path d="M223.51,544a13.44,13.44,0,0,0-4.21-9.08c-4.07.48-8.9,1.57-11.6,2.09,5.59,3.93,10.72,7.55,15.44,10.89A15.41,15.41,0,0,0,223.51,544Z" style="fill:#00a651"/><path d="M230.76,554.26l-6.46-4.58a23.43,23.43,0,0,1-3.74,7.2C226.06,556.16,229.13,555.07,230.76,554.26Z" style="fill:#00a651"/><path d="M218.07,557.35a21.25,21.25,0,0,0,4.86-8.64l-1.34-1c-4,2.73-7.35,5.43-12.15,8.6,2.09.47,5,1.26,7.84,1.84Z" style="fill:#00a651"/><path d="M236.56,537.23l-1.31,0c-.87,0-1.69-.11-1.69-.11a10.53,10.53,0,0,1,1,1.5,8.47,8.47,0,0,1,.7,2c3.68,2.55,8.17,5.7,13.07,9.14,7.84-2,13.74-4.5,15.84-6.74s2-13.36,2.08-18C262.19,532.88,250.58,536.12,236.56,537.23Z" style="fill:#00a651"/><path d="M178.13,578.24c6.38-4.77,14-10.39,24.09-17.63,5.46-3.92,11.63-8.32,18.7-13.33l-10.47-7.38c-4.46,3.08-10.56,7.34-17.22,12-8.43,5.93-17.77,12.52-25.88,18.25Z" style="fill:#00a651"/><path d="M264.64,577.9l12.53-6.81c-8.09-5.71-17.59-12.42-26.22-18.49-5.77-4.06-11.16-7.83-15.49-10.84h0a24.94,24.94,0,0,1-.05,6.57v0c0,.3-.09.6-.13.89h0c0,.28-.09.56-.15.83,0,0,0,0,0,.08-.06.26-.11.5-.17.74v0c-.05.24-.12.48-.18.7l0,.12c-.06.21-.12.4-.19.59v0c-.07.2-.14.38-.21.55a.61.61,0,0,1-.05.12,4.68,4.68,0,0,1-.2.45v0l-.22.38-.06.08a2.61,2.61,0,0,1-.23.3l-.08.08,0,0-.29.25h0l-.22.16h0c3.44,2.45,6.63,4.74,9.61,6.88C251.62,568.26,258.68,573.44,264.64,577.9Z" style="fill:#00a651"/><rect x="98.81" y="394.21" width="162.76" height="7.52" rx="3" style="fill:#fff;opacity:0.4"/><rect x="98.81" y="421.13" width="188.28" height="7.52" rx="3" style="fill:#fff;opacity:0.4"/><rect x="98.81" y="448.05" width="148.96" height="7.52" rx="3" style="fill:#fff;opacity:0.4"/><rect x="98.81" y="474.97" width="171.9" height="7.52" rx="3" style="fill:#fff;opacity:0.4"/><path d="M78.91,273a5.43,5.43,0,0,0,.75,2.67c.84,1.29,2.31,1.93,4.43,1.93a7.61,7.61,0,0,0,2.59-.42,3,3,0,0,0,2.26-2.93A2.56,2.56,0,0,0,88,272a9.3,9.3,0,0,0-3-1.14l-2.54-.6A11.26,11.26,0,0,1,78.88,269a4.08,4.08,0,0,1-1.79-3.63,5.65,5.65,0,0,1,1.76-4.29,7,7,0,0,1,5-1.67,8.48,8.48,0,0,1,5,1.47,5.37,5.37,0,0,1,2.07,4.7H88.47a5.08,5.08,0,0,0-.81-2.39,4.61,4.61,0,0,0-3.91-1.51,4.41,4.41,0,0,0-3.2,1,3.15,3.15,0,0,0-1,2.27A2.22,2.22,0,0,0,80.73,267,15.7,15.7,0,0,0,84.14,268l2.63.62a8.1,8.1,0,0,1,2.94,1.22,4.67,4.67,0,0,1,1.79,3.95,5,5,0,0,1-2.28,4.6,10.05,10.05,0,0,1-5.31,1.38A7.79,7.79,0,0,1,78.4,278a6.34,6.34,0,0,1-2-5Z" style="fill:#fff"/><path d="M103.61,265.5a5.35,5.35,0,0,1,2.13,1.83,6.22,6.22,0,0,1,1,2.49,16.38,16.38,0,0,1,.21,3.11H96.63a6.14,6.14,0,0,0,1,3.46,3.36,3.36,0,0,0,2.92,1.3,3.74,3.74,0,0,0,2.94-1.23,4.39,4.39,0,0,0,.88-1.65h2.33a5.08,5.08,0,0,1-.61,1.73,6.11,6.11,0,0,1-1.17,1.56,5.52,5.52,0,0,1-2.65,1.43,8.09,8.09,0,0,1-1.93.21,5.91,5.91,0,0,1-4.44-1.92,7.51,7.51,0,0,1-1.82-5.37,8.14,8.14,0,0,1,1.84-5.53,6,6,0,0,1,4.79-2.12A6.39,6.39,0,0,1,103.61,265.5Zm.85,5.55a6.27,6.27,0,0,0-.67-2.47,3.41,3.41,0,0,0-3.23-1.71,3.57,3.57,0,0,0-2.72,1.18,4.48,4.48,0,0,0-1.16,3Z" style="fill:#fff"/><path d="M117.47,270.69a1.31,1.31,0,0,0,1.1-.68,2.26,2.26,0,0,0,.15-.92,1.91,1.91,0,0,0-.86-1.76,4.57,4.57,0,0,0-2.47-.55,3.13,3.13,0,0,0-2.63,1,3.37,3.37,0,0,0-.56,1.66H110a4.1,4.1,0,0,1,1.69-3.64,6.91,6.91,0,0,1,3.78-1,7.69,7.69,0,0,1,4,1,3.21,3.21,0,0,1,1.54,2.95v8.14a1,1,0,0,0,.15.59.74.74,0,0,0,.64.23l.36,0,.42-.06v1.75a6.37,6.37,0,0,1-.85.2,5.45,5.45,0,0,1-.79,0,2,2,0,0,1-1.78-.87,3.27,3.27,0,0,1-.4-1.31,5.94,5.94,0,0,1-2.09,1.65,6.37,6.37,0,0,1-3,.7,4.47,4.47,0,0,1-3.21-1.19,4,4,0,0,1-1.25-3,3.85,3.85,0,0,1,1.23-3.05,5.87,5.87,0,0,1,3.22-1.33Zm-5,6.41a2.79,2.79,0,0,0,1.78.59,5.36,5.36,0,0,0,2.43-.58,3.26,3.26,0,0,0,2-3.14v-1.91a4.06,4.06,0,0,1-1.12.46,9.64,9.64,0,0,1-1.34.27l-1.44.18a5.41,5.41,0,0,0-1.94.54,2.1,2.1,0,0,0-1.1,2A1.94,1.94,0,0,0,112.47,277.1Z" style="fill:#fff"/><path d="M125,265.12h2.25v2.43a5.38,5.38,0,0,1,1.36-1.73,3.52,3.52,0,0,1,2.49-1h.22l.54.05v2.51a3,3,0,0,0-.39-.05l-.38,0a3.39,3.39,0,0,0-2.76,1.16,4,4,0,0,0-1,2.65v8.13H125Z" style="fill:#fff"/><path d="M143.24,265.87a5.56,5.56,0,0,1,1.8,4h-2.31a4.28,4.28,0,0,0-1-2.17,3.06,3.06,0,0,0-2.41-.86,3.34,3.34,0,0,0-3.25,2.21,8.83,8.83,0,0,0-.63,3.54,6.7,6.7,0,0,0,.89,3.57,3.49,3.49,0,0,0,5.17.55,5,5,0,0,0,1.19-2.46H145a6.27,6.27,0,0,1-2,4.11,6.2,6.2,0,0,1-4.05,1.29,5.38,5.38,0,0,1-4.41-2,7.74,7.74,0,0,1-1.65-5.06,8.53,8.53,0,0,1,1.8-5.78,5.85,5.85,0,0,1,4.61-2.07A6.12,6.12,0,0,1,143.24,265.87Z" style="fill:#fff"/><path d="M147.41,259.8h2.37V267a7.08,7.08,0,0,1,1.52-1.51,5.11,5.11,0,0,1,2.86-.75q3.08,0,4.17,2.15a7.42,7.42,0,0,1,.59,3.26v9.06h-2.44v-8.9a4.86,4.86,0,0,0-.4-2.28,2.5,2.5,0,0,0-2.42-1.16,4,4,0,0,0-2.68,1q-1.2,1-1.2,3.84v7.49h-2.37Z" style="fill:#fff"/><path d="M112.65,353.31a6.4,6.4,0,0,1,3.23,4.92h-2.41a4.35,4.35,0,0,0-1.78-2.86,6,6,0,0,0-3.41-.9,5.27,5.27,0,0,0-4.1,1.87,8.13,8.13,0,0,0-1.67,5.57,9,9,0,0,0,1.38,5.2,5,5,0,0,0,4.48,2,5.65,5.65,0,0,0,3.94-1.41,6,6,0,0,0,1.6-4.56H108.3v-2h7.87v9.59h-1.56l-.59-2.31a8.87,8.87,0,0,1-2.15,1.88,7.87,7.87,0,0,1-4,.91,7.74,7.74,0,0,1-5.39-2.06A9.91,9.91,0,0,1,100,362a10.28,10.28,0,0,1,2.41-7.17,7.58,7.58,0,0,1,5.92-2.53A9,9,0,0,1,112.65,353.31Z" style="fill:#fff"/><path d="M119.93,357.66H122v2.26a5,5,0,0,1,1.25-1.61,3.28,3.28,0,0,1,2.31-.95l.21,0,.5.05v2.32a1.63,1.63,0,0,0-.36-.05l-.36,0a3.13,3.13,0,0,0-2.55,1.07,3.69,3.69,0,0,0-.89,2.46v7.52h-2.2Z" style="fill:#fff"/><path d="M137.67,359a6.62,6.62,0,0,1,1.73,5,8.51,8.51,0,0,1-1.53,5.22,5.51,5.51,0,0,1-4.74,2.07,5.32,5.32,0,0,1-4.25-1.83,7.2,7.2,0,0,1-1.58-4.89,7.87,7.87,0,0,1,1.66-5.25,5.57,5.57,0,0,1,4.46-2A5.88,5.88,0,0,1,137.67,359Zm-1.37,8.69a8.23,8.23,0,0,0,.8-3.67,6.73,6.73,0,0,0-.57-3,3.27,3.27,0,0,0-3.17-1.8,3.11,3.11,0,0,0-2.89,1.53,7.14,7.14,0,0,0-.91,3.71,6.16,6.16,0,0,0,.91,3.47,3.16,3.16,0,0,0,2.87,1.39A3,3,0,0,0,136.3,367.65Z" style="fill:#fff"/><path d="M144.29,357.66v8.68a3.82,3.82,0,0,0,.31,1.63,2.15,2.15,0,0,0,2.13,1.18,3,3,0,0,0,3-2.06,8.14,8.14,0,0,0,.44-3v-6.42h2.2v13.07h-2.07l0-1.93a4.44,4.44,0,0,1-1,1.26,4.55,4.55,0,0,1-3,1,3.85,3.85,0,0,1-3.73-1.87,5.67,5.67,0,0,1-.54-2.68v-8.88Z" style="fill:#fff"/><path d="M155.82,357.72H158v1.73a5.49,5.49,0,0,1,1.44-1.38,4.65,4.65,0,0,1,2.62-.73,5,5,0,0,1,3.78,1.7,7,7,0,0,1,1.56,4.87q0,4.27-2.25,6.1a5.08,5.08,0,0,1-3.31,1.16,4.4,4.4,0,0,1-2.48-.65,5.68,5.68,0,0,1-1.32-1.25v6.67h-2.19ZM164.08,368a6.08,6.08,0,0,0,1-3.85,7,7,0,0,0-.46-2.69,3.32,3.32,0,0,0-6.27.12,9.11,9.11,0,0,0-.45,3.1,6.62,6.62,0,0,0,.45,2.58,3.34,3.34,0,0,0,5.7.74Z" style="fill:#fff"/><path d="M189.83,354.11a6.39,6.39,0,0,1,2.06,4.07h-2.37a4.53,4.53,0,0,0-4.89-3.76,5.23,5.23,0,0,0-4.2,1.87q-1.6,1.86-1.6,5.71a8.43,8.43,0,0,0,1.44,5.11,5,5,0,0,0,4.31,2,4.54,4.54,0,0,0,4-2.06,8,8,0,0,0,1.09-2.86h2.37A8.12,8.12,0,0,1,190,368.9a7.31,7.31,0,0,1-5.69,2.31,7.47,7.47,0,0,1-5.19-1.89q-2.76-2.51-2.76-7.74a10,10,0,0,1,2.07-6.51,7.55,7.55,0,0,1,6.19-2.76A7.21,7.21,0,0,1,189.83,354.11Z" style="fill:#fff"/><path d="M195,352.8h2.19v17.93H195Z" style="fill:#fff"/><path d="M207.47,362.82a1.22,1.22,0,0,0,1-.63,1.93,1.93,0,0,0,.15-.85,1.81,1.81,0,0,0-.8-1.64,4.37,4.37,0,0,0-2.29-.5,2.89,2.89,0,0,0-2.43.93,3,3,0,0,0-.53,1.53h-2.05a3.8,3.8,0,0,1,1.57-3.37,6.43,6.43,0,0,1,3.49-1,7.08,7.08,0,0,1,3.75.88,3,3,0,0,1,1.42,2.73v7.54a1,1,0,0,0,.14.55.71.71,0,0,0,.59.2,1.94,1.94,0,0,0,.33,0l.4-.05v1.62a7.56,7.56,0,0,1-.79.19,6.91,6.91,0,0,1-.73,0,1.82,1.82,0,0,1-1.65-.8,3.25,3.25,0,0,1-.38-1.21,5.6,5.6,0,0,1-1.92,1.52,5.89,5.89,0,0,1-2.77.65,4.15,4.15,0,0,1-3-1.1,3.67,3.67,0,0,1-1.15-2.76,3.59,3.59,0,0,1,1.13-2.82,5.36,5.36,0,0,1,3-1.23Zm-4.63,5.94a2.6,2.6,0,0,0,1.65.54,5.08,5.08,0,0,0,2.24-.53,3,3,0,0,0,1.83-2.92v-1.76a3.84,3.84,0,0,1-1,.43,9.66,9.66,0,0,1-1.24.24l-1.33.17a5.16,5.16,0,0,0-1.8.5,1.94,1.94,0,0,0-1,1.83A1.83,1.83,0,0,0,202.84,368.76Z" style="fill:#fff"/><path d="M215.67,366.63a3.13,3.13,0,0,0,.56,1.69,3.57,3.57,0,0,0,2.94,1.06,4.44,4.44,0,0,0,2.19-.53,1.77,1.77,0,0,0,.95-1.65,1.4,1.4,0,0,0-.76-1.28,9.29,9.29,0,0,0-1.91-.62l-1.77-.44a8.87,8.87,0,0,1-2.51-.93,2.75,2.75,0,0,1-1.44-2.46,3.75,3.75,0,0,1,1.36-3,5.45,5.45,0,0,1,3.64-1.14,5.07,5.07,0,0,1,4.32,1.73,3.71,3.71,0,0,1,.8,2.37H222a2.46,2.46,0,0,0-.54-1.35,3.51,3.51,0,0,0-2.69-.86,3.33,3.33,0,0,0-1.93.47,1.5,1.5,0,0,0-.65,1.26,1.53,1.53,0,0,0,.86,1.36,5.16,5.16,0,0,0,1.47.53l1.48.36a11.42,11.42,0,0,1,3.23,1.11,2.92,2.92,0,0,1,1.28,2.65,4,4,0,0,1-1.34,3,5.72,5.72,0,0,1-4.08,1.27c-2,0-3.37-.44-4.19-1.32a4.94,4.94,0,0,1-1.31-3.28Z" style="fill:#fff"/><path d="M228.17,366.63a3.13,3.13,0,0,0,.56,1.69,3.57,3.57,0,0,0,2.94,1.06,4.44,4.44,0,0,0,2.19-.53,1.77,1.77,0,0,0,.95-1.65,1.4,1.4,0,0,0-.76-1.28,9.29,9.29,0,0,0-1.91-.62l-1.77-.44a8.87,8.87,0,0,1-2.51-.93,2.75,2.75,0,0,1-1.44-2.46,3.75,3.75,0,0,1,1.36-3,5.45,5.45,0,0,1,3.64-1.14,5.07,5.07,0,0,1,4.32,1.73,3.71,3.71,0,0,1,.8,2.37h-2.07a2.46,2.46,0,0,0-.54-1.35,3.51,3.51,0,0,0-2.69-.86,3.33,3.33,0,0,0-1.93.47,1.5,1.5,0,0,0-.65,1.26,1.53,1.53,0,0,0,.86,1.36,5.16,5.16,0,0,0,1.47.53l1.48.36a11.42,11.42,0,0,1,3.23,1.11A2.92,2.92,0,0,1,237,367a4,4,0,0,1-1.34,3,5.72,5.72,0,0,1-4.08,1.27c-2,0-3.37-.44-4.19-1.32a4.94,4.94,0,0,1-1.31-3.28Z" style="fill:#fff"/><path d="M247.44,358a5,5,0,0,1,2,1.69,6,6,0,0,1,.87,2.31,15.18,15.18,0,0,1,.19,2.88H241a5.67,5.67,0,0,0,.94,3.2,3.11,3.11,0,0,0,2.7,1.2,3.46,3.46,0,0,0,2.72-1.14,3.89,3.89,0,0,0,.81-1.53h2.16a4.67,4.67,0,0,1-.57,1.61,5.74,5.74,0,0,1-1.07,1.44A5.17,5.17,0,0,1,246.2,371a7.45,7.45,0,0,1-1.78.2,5.5,5.5,0,0,1-4.12-1.78,6.94,6.94,0,0,1-1.68-5,7.52,7.52,0,0,1,1.7-5.12,5.59,5.59,0,0,1,4.44-2A5.86,5.86,0,0,1,247.44,358Zm.79,5.13a5.79,5.79,0,0,0-.62-2.28,3.17,3.17,0,0,0-3-1.59,3.34,3.34,0,0,0-2.52,1.09,4.15,4.15,0,0,0-1.08,2.78Z" style="fill:#fff"/><path d="M254.57,366.63a3.31,3.31,0,0,0,.56,1.69,3.6,3.6,0,0,0,2.94,1.06,4.5,4.5,0,0,0,2.2-.53,1.76,1.76,0,0,0,.94-1.65,1.41,1.41,0,0,0-.75-1.28,9.52,9.52,0,0,0-1.91-.62l-1.78-.44a8.78,8.78,0,0,1-2.5-.93,2.75,2.75,0,0,1-1.44-2.46,3.77,3.77,0,0,1,1.35-3,5.47,5.47,0,0,1,3.64-1.14,5.07,5.07,0,0,1,4.32,1.73,3.78,3.78,0,0,1,.81,2.37h-2.08a2.46,2.46,0,0,0-.54-1.35,3.49,3.49,0,0,0-2.68-.86,3.31,3.31,0,0,0-1.93.47,1.49,1.49,0,0,0-.66,1.26,1.55,1.55,0,0,0,.86,1.36,5.16,5.16,0,0,0,1.47.53l1.48.36a11.3,11.3,0,0,1,3.23,1.11,2.93,2.93,0,0,1,1.29,2.65,4,4,0,0,1-1.35,3,5.72,5.72,0,0,1-4.08,1.27c-2,0-3.36-.44-4.18-1.32a5,5,0,0,1-1.32-3.28Z" style="fill:#fff"/><path d="M106,701.35h2.74l6.51,17.93h-2.66l-1.87-5.37h-7l-1.94,5.37H99.2Zm4,10.58L107.22,704l-2.87,7.92Z" style="fill:#fff"/><path d="M116.91,706.27h2.15V708a5.37,5.37,0,0,1,1.45-1.38,4.7,4.7,0,0,1,2.62-.73,5,5,0,0,1,3.78,1.7,7,7,0,0,1,1.55,4.87q0,4.27-2.24,6.1a5,5,0,0,1-3.31,1.16,4.52,4.52,0,0,1-2.49-.64,6,6,0,0,1-1.31-1.26v6.68h-2.2Zm8.27,10.25a6.12,6.12,0,0,0,1-3.85,7.25,7.25,0,0,0-.45-2.69,3.32,3.32,0,0,0-6.27.12,9.11,9.11,0,0,0-.45,3.1,6.62,6.62,0,0,0,.45,2.58,3.33,3.33,0,0,0,5.7.74Z" style="fill:#fff"/><path d="M130.82,706.27H133V708a5.49,5.49,0,0,1,1.44-1.38,4.73,4.73,0,0,1,2.62-.73,5,5,0,0,1,3.78,1.7,7,7,0,0,1,1.56,4.87q0,4.27-2.25,6.1a5,5,0,0,1-3.31,1.16,4.48,4.48,0,0,1-2.48-.64,6,6,0,0,1-1.32-1.26v6.68h-2.19Zm8.26,10.25a6.06,6.06,0,0,0,1-3.85,7,7,0,0,0-.46-2.69,3.32,3.32,0,0,0-6.27.12,9.11,9.11,0,0,0-.45,3.1,6.62,6.62,0,0,0,.45,2.58,3.33,3.33,0,0,0,5.7.74Z" style="fill:#fff"/><path d="M154.38,707.51a6.65,6.65,0,0,1,1.73,5,8.55,8.55,0,0,1-1.53,5.22,5.51,5.51,0,0,1-4.74,2.06,5.32,5.32,0,0,1-4.25-1.83A7.2,7.2,0,0,1,144,713a7.87,7.87,0,0,1,1.66-5.25,5.58,5.58,0,0,1,4.47-1.95A5.87,5.87,0,0,1,154.38,707.51ZM153,716.2a8.21,8.21,0,0,0,.81-3.67,6.73,6.73,0,0,0-.58-3,3.27,3.27,0,0,0-3.17-1.8,3.11,3.11,0,0,0-2.89,1.53,7.14,7.14,0,0,0-.91,3.71,6.22,6.22,0,0,0,.91,3.48,3.19,3.19,0,0,0,2.87,1.39A3,3,0,0,0,153,716.2Z" style="fill:#fff"/><path d="M158.81,701.35H161v2.49h-2.23Zm0,4.92H161v13h-2.23Z" style="fill:#fff"/><path d="M164.36,706.21h2.09v1.86a5.71,5.71,0,0,1,2-1.65,5.14,5.14,0,0,1,2.3-.5c1.86,0,3.11.64,3.76,1.94a6.86,6.86,0,0,1,.54,3v8.38h-2.23V711a4.43,4.43,0,0,0-.36-1.93,2.15,2.15,0,0,0-2.12-1.22,4.49,4.49,0,0,0-1.28.16,3.25,3.25,0,0,0-1.59,1.08,3,3,0,0,0-.71,1.33,8.41,8.41,0,0,0-.17,2v6.84h-2.2Z" style="fill:#fff"/><path d="M178.71,702.56h2.22v3.65H183V708h-2.08v8.54a.91.91,0,0,0,.46.91,2,2,0,0,0,.86.14h.34l.42,0v1.74a4,4,0,0,1-.78.16,8.22,8.22,0,0,1-.89,0,2.39,2.39,0,0,1-2.09-.79,3.51,3.51,0,0,1-.54-2V708h-1.77v-1.79h1.77Z" style="fill:#fff"/><path d="M185.21,706.21h2.18v1.86a7.14,7.14,0,0,1,1.41-1.41,4.25,4.25,0,0,1,2.47-.74,3.82,3.82,0,0,1,2.51.77,3.9,3.9,0,0,1,1,1.29,4.78,4.78,0,0,1,1.72-1.56,4.9,4.9,0,0,1,2.22-.5,3.62,3.62,0,0,1,3.59,1.9,6.24,6.24,0,0,1,.51,2.76v8.7h-2.28V710.2a2.11,2.11,0,0,0-.65-1.79,2.58,2.58,0,0,0-1.6-.49,3.17,3.17,0,0,0-2.22.86,3.8,3.8,0,0,0-.94,2.9v7.6h-2.23v-8.53a4.45,4.45,0,0,0-.32-1.94,1.94,1.94,0,0,0-1.87-.92,3.23,3.23,0,0,0-2.26,1c-.68.64-1,1.8-1,3.49v6.93h-2.2Z" style="fill:#fff"/><path d="M214.11,706.57a4.88,4.88,0,0,1,2,1.69,5.73,5.73,0,0,1,.87,2.31,15,15,0,0,1,.2,2.88h-9.51a5.64,5.64,0,0,0,.93,3.2,3.12,3.12,0,0,0,2.7,1.21,3.49,3.49,0,0,0,2.73-1.15,3.75,3.75,0,0,0,.8-1.53H217a4.67,4.67,0,0,1-.57,1.61,5.53,5.53,0,0,1-1.08,1.44,5.08,5.08,0,0,1-2.46,1.32,7.39,7.39,0,0,1-1.78.2A5.46,5.46,0,0,1,207,718a6.9,6.9,0,0,1-1.69-5,7.57,7.57,0,0,1,1.7-5.12,5.58,5.58,0,0,1,4.44-2A5.82,5.82,0,0,1,214.11,706.57Zm.79,5.13a5.79,5.79,0,0,0-.62-2.28,3.15,3.15,0,0,0-3-1.59,3.31,3.31,0,0,0-2.52,1.1,4.15,4.15,0,0,0-1.07,2.77Z" style="fill:#fff"/><path d="M219.94,706.21H222v1.86a5.78,5.78,0,0,1,2-1.65,5.21,5.21,0,0,1,2.31-.5c1.86,0,3.11.64,3.76,1.94a6.86,6.86,0,0,1,.54,3v8.38h-2.24V711a4.44,4.44,0,0,0-.35-1.93,2.15,2.15,0,0,0-2.12-1.22,4.62,4.62,0,0,0-1.29.16,3.27,3.27,0,0,0-1.58,1.08,3.18,3.18,0,0,0-.72,1.33,9.1,9.1,0,0,0-.16,2v6.84h-2.2Z" style="fill:#fff"/><path d="M234.28,702.56h2.23v3.65h2.08V708h-2.08v8.54a.91.91,0,0,0,.46.91,2,2,0,0,0,.85.14h.35l.42,0v1.74a4,4,0,0,1-.78.16,8.22,8.22,0,0,1-.89,0,2.39,2.39,0,0,1-2.09-.79,3.51,3.51,0,0,1-.55-2V708h-1.76v-1.79h1.76Z" style="fill:#fff"/><path d="M242.1,715.18a3.1,3.1,0,0,0,.56,1.69,3.57,3.57,0,0,0,2.94,1.06,4.44,4.44,0,0,0,2.19-.53,1.77,1.77,0,0,0,1-1.64,1.4,1.4,0,0,0-.76-1.29,9.29,9.29,0,0,0-1.91-.62l-1.77-.44a8.29,8.29,0,0,1-2.51-.93,2.75,2.75,0,0,1-1.44-2.46,3.71,3.71,0,0,1,1.36-3,5.4,5.4,0,0,1,3.64-1.15,5.11,5.11,0,0,1,4.32,1.73,3.71,3.71,0,0,1,.8,2.37H248.4a2.57,2.57,0,0,0-.54-1.35,3.51,3.51,0,0,0-2.69-.86,3.33,3.33,0,0,0-1.93.47,1.48,1.48,0,0,0-.65,1.26,1.53,1.53,0,0,0,.86,1.36,5.45,5.45,0,0,0,1.47.54l1.48.35a11.55,11.55,0,0,1,3.23,1.11,2.94,2.94,0,0,1,1.28,2.65,4,4,0,0,1-1.34,3,5.73,5.73,0,0,1-4.08,1.27c-2,0-3.37-.44-4.19-1.32a4.94,4.94,0,0,1-1.31-3.28Z" style="fill:#fff"/><path d="M70.61,67.51v4.35l4.26-1.47.78,2.15-4.26,1.39L74,77.61,72.09,79l-2.55-3.82L67,79l-2-1.38,2.68-3.68-4.3-1.39.78-2.17,4.22,1.53V67.51Z" style="fill:#666"/><path d="M80.43,67.51H85L99.32,90.69V67.51H103V96.2H98.66L84.14,73.05V96.2H80.43Z" style="fill:#666"/><path d="M120.06,83.54a1.89,1.89,0,0,0,1.62-1,3.09,3.09,0,0,0,.23-1.35,2.86,2.86,0,0,0-1.27-2.62,6.84,6.84,0,0,0-3.66-.82,4.63,4.63,0,0,0-3.9,1.5,5,5,0,0,0-.83,2.45H109c.06-2.59.9-4.38,2.5-5.4a10.29,10.29,0,0,1,5.59-1.51,11.33,11.33,0,0,1,6,1.4,4.78,4.78,0,0,1,2.28,4.38v12a1.55,1.55,0,0,0,.23.88,1.07,1.07,0,0,0,.94.33l.53,0,.63-.09v2.6a9.55,9.55,0,0,1-1.25.29,9,9,0,0,1-1.17.06,2.89,2.89,0,0,1-2.64-1.29,4.92,4.92,0,0,1-.61-1.93,8.84,8.84,0,0,1-3.08,2.44,9.55,9.55,0,0,1-4.44,1,6.57,6.57,0,0,1-4.75-1.76,5.87,5.87,0,0,1-1.85-4.42,5.67,5.67,0,0,1,1.82-4.5,8.65,8.65,0,0,1,4.76-2Zm-7.4,9.5a4.15,4.15,0,0,0,2.63.88,8.08,8.08,0,0,0,3.6-.86,4.83,4.83,0,0,0,2.93-4.66V85.57a6.33,6.33,0,0,1-1.66.69,14.55,14.55,0,0,1-2,.39l-2.12.27a8.37,8.37,0,0,0-2.88.8,3.11,3.11,0,0,0-1.63,2.92A2.87,2.87,0,0,0,112.66,93Z" style="fill:#666"/><path d="M131.09,75.28h3.48v3A11.18,11.18,0,0,1,136.84,76a6.77,6.77,0,0,1,3.94-1.2,6.18,6.18,0,0,1,4,1.24,6.3,6.3,0,0,1,1.56,2.07,7.61,7.61,0,0,1,2.75-2.49,7.71,7.71,0,0,1,3.56-.82q4.22,0,5.74,3a10,10,0,0,1,.82,4.42V96.2h-3.65V81.67a3.38,3.38,0,0,0-1.05-2.87A4.12,4.12,0,0,0,152,78a5.05,5.05,0,0,0-3.56,1.38q-1.5,1.39-1.5,4.63V96.2h-3.57V82.55a7.08,7.08,0,0,0-.51-3.11,3.1,3.1,0,0,0-3-1.46,5.16,5.16,0,0,0-3.62,1.54q-1.63,1.55-1.63,5.59V96.2h-3.52Z" style="fill:#666"/><path d="M177.34,75.86a8.05,8.05,0,0,1,3.16,2.7,9.51,9.51,0,0,1,1.4,3.7,24.9,24.9,0,0,1,.31,4.61H167a9.11,9.11,0,0,0,1.5,5.12,5,5,0,0,0,4.32,1.93,5.55,5.55,0,0,0,4.36-1.83,6.21,6.21,0,0,0,1.29-2.45h3.45a7.35,7.35,0,0,1-.9,2.57,9.52,9.52,0,0,1-1.72,2.31,8.12,8.12,0,0,1-3.94,2.11,11.79,11.79,0,0,1-2.85.31,8.71,8.71,0,0,1-6.58-2.84c-1.8-1.89-2.7-4.55-2.7-8A12.08,12.08,0,0,1,165.94,78a8.94,8.94,0,0,1,7.11-3.15A9.43,9.43,0,0,1,177.34,75.86Zm1.25,8.21a9.25,9.25,0,0,0-1-3.65,5.07,5.07,0,0,0-4.79-2.54,5.28,5.28,0,0,0-4,1.75,6.67,6.67,0,0,0-1.72,4.44Z" style="fill:#666"/><path d="M188.52,75.56h4.08v4.25h-4.08Zm0,16.38h4.08V96.2h-4.08Z" style="fill:#666"/><rect x="336.05" y="57.67" width="990.42" height="49.65" rx="3" style="fill:#fff;stroke:#e2e2e2;stroke-miterlimit:10;stroke-width:3px"/><rect x="44.31" y="404.33" width="1282.17" height="64.27" rx="3" style="fill:#e6e7e8"/><path d="M98.58,173.58a19.74,19.74,0,0,1-7.08,7.07,19.27,19.27,0,0,1-19.37,0,19.64,19.64,0,0,1-7.07-7.07,19.23,19.23,0,0,1,0-19.38,19.48,19.48,0,0,1,7.07-7.07,19.21,19.21,0,0,1,19.37,0,19.59,19.59,0,0,1,7.08,7.07,19.29,19.29,0,0,1,0,19.38ZM77,152.25a11,11,0,0,0-3.75,3.67.8.8,0,0,0-.15.66,1,1,0,0,0,.39.59l2.73,2a.76.76,0,0,0,.63.2.85.85,0,0,0,.62-.36,15.61,15.61,0,0,1,2-2,4.17,4.17,0,0,1,2.5-.78,4.46,4.46,0,0,1,2.46.74,2.18,2.18,0,0,1,1.13,1.84,1.93,1.93,0,0,1-.7,1.48,16.48,16.48,0,0,1-1.8,1.18l-.16.07a11.08,11.08,0,0,0-2.73,2A4.93,4.93,0,0,0,78.69,167v.32A.87.87,0,0,0,79,168a.9.9,0,0,0,.66.27H84a.92.92,0,0,0,.94-.93v-.08a1.36,1.36,0,0,1,.63-1.1,13.44,13.44,0,0,1,1.48-.93A14.22,14.22,0,0,0,89.94,163a6,6,0,0,0,1.49-4.14,6.78,6.78,0,0,0-1.33-4A9.42,9.42,0,0,0,86.66,152a9.57,9.57,0,0,0-4.3-1.05A10.43,10.43,0,0,0,77,152.25Zm2.31,19.1a3.57,3.57,0,1,0,2.54-1.06A3.47,3.47,0,0,0,79.28,171.35Z" style="fill:#666"/><path d="M122.19,150.2H135a8.75,8.75,0,0,1,6.15,2.15,7.86,7.86,0,0,1,2.34,6.07,8.78,8.78,0,0,1-2.09,5.85q-2.09,2.49-6.39,2.49h-9v12.13h-3.89Zm15.08,3.94a8.4,8.4,0,0,0-3.51-.6h-7.68v9.94h7.68a7.26,7.26,0,0,0,4.22-1.12c1.08-.74,1.62-2.05,1.62-3.92Q139.6,155.28,137.27,154.14Z" style="fill:#666"/><path d="M148.13,158h3.34v3.61a8.23,8.23,0,0,1,2-2.57,5.26,5.26,0,0,1,3.69-1.51l.34,0,.8.08v3.71a4.46,4.46,0,0,0-.58-.08l-.57,0a5,5,0,0,0-4.09,1.71,6,6,0,0,0-1.42,3.94v12h-3.52Z" style="fill:#666"/><path d="M176.51,160.06q2.78,2.69,2.77,7.92a13.64,13.64,0,0,1-2.44,8.35q-2.44,3.3-7.58,3.3a8.52,8.52,0,0,1-6.81-2.92,11.55,11.55,0,0,1-2.52-7.83,12.47,12.47,0,0,1,2.66-8.39,8.9,8.9,0,0,1,7.13-3.13A9.36,9.36,0,0,1,176.51,160.06ZM174.33,174a13.35,13.35,0,0,0,1.28-5.88,10.67,10.67,0,0,0-.92-4.76,5.21,5.21,0,0,0-5.07-2.89,5,5,0,0,0-4.63,2.46,11.43,11.43,0,0,0-1.45,5.93,10,10,0,0,0,1.45,5.56,5.1,5.1,0,0,0,4.6,2.22Q173,176.6,174.33,174Z" style="fill:#666"/><path d="M195.23,158.81a9.63,9.63,0,0,1,2,2v-2.63h3.25v19a14.08,14.08,0,0,1-1.17,6.29q-2.19,4.26-8.24,4.26a10.06,10.06,0,0,1-5.66-1.52,5.91,5.91,0,0,1-2.57-4.73h3.57a4,4,0,0,0,1,2.16,5.15,5.15,0,0,0,3.73,1.18c2.68,0,4.44-1,5.27-2.86a16.12,16.12,0,0,0,.68-6,6.89,6.89,0,0,1-2.53,2.38,9.06,9.06,0,0,1-9.84-1.63q-2.53-2.41-2.54-8c0-3.5.86-6.24,2.56-8.2a7.9,7.9,0,0,1,6.18-3A7.56,7.56,0,0,1,195.23,158.81Zm.43,3.77a5.1,5.1,0,0,0-4.06-1.88,5,5,0,0,0-5,3.48,13.69,13.69,0,0,0-.72,4.86,8.67,8.67,0,0,0,1.42,5.38,4.6,4.6,0,0,0,3.84,1.85,5.39,5.39,0,0,0,5.31-3.42,11.07,11.07,0,0,0,.85-4.51Q197.25,164.46,195.66,162.58Z" style="fill:#666"/><path d="M205.94,158h3.34v3.61a8.14,8.14,0,0,1,2-2.57A5.22,5.22,0,0,1,215,157.5l.33,0,.8.08v3.71a4.46,4.46,0,0,0-.58-.08l-.57,0a5,5,0,0,0-4.08,1.71,6,6,0,0,0-1.43,3.94v12h-3.52Z" style="fill:#666"/><path d="M232.09,158.55a7.83,7.83,0,0,1,3.16,2.7,9.37,9.37,0,0,1,1.4,3.69,24.11,24.11,0,0,1,.31,4.61H221.75a9,9,0,0,0,1.49,5.12,5,5,0,0,0,4.32,1.93,5.58,5.58,0,0,0,4.36-1.82,6.22,6.22,0,0,0,1.29-2.45h3.46a7.35,7.35,0,0,1-.91,2.56,9.39,9.39,0,0,1-1.72,2.32,8.16,8.16,0,0,1-3.94,2.11,11.79,11.79,0,0,1-2.85.31,8.74,8.74,0,0,1-6.58-2.84c-1.8-1.9-2.69-4.55-2.69-8a12.05,12.05,0,0,1,2.71-8.18,8.94,8.94,0,0,1,7.11-3.15A9.43,9.43,0,0,1,232.09,158.55Zm1.26,8.21a9.41,9.41,0,0,0-1-3.65,5,5,0,0,0-4.78-2.54,5.25,5.25,0,0,0-4,1.75,6.61,6.61,0,0,0-1.73,4.44Z" style="fill:#666"/><path d="M243.5,172.33a5.06,5.06,0,0,0,.9,2.69q1.35,1.69,4.7,1.7a7,7,0,0,0,3.51-.85,2.82,2.82,0,0,0,1.52-2.63,2.25,2.25,0,0,0-1.21-2.05,14.75,14.75,0,0,0-3.06-1l-2.84-.71a13.86,13.86,0,0,1-4-1.48,4.44,4.44,0,0,1-2.3-3.95,6,6,0,0,1,2.17-4.8,8.72,8.72,0,0,1,5.83-1.84q4.78,0,6.9,2.78A5.9,5.9,0,0,1,256.9,164h-3.32a4,4,0,0,0-.86-2.16c-.83-.92-2.26-1.38-4.3-1.38a5.22,5.22,0,0,0-3.09.76,2.36,2.36,0,0,0-1.05,2,2.45,2.45,0,0,0,1.38,2.18,8.35,8.35,0,0,0,2.35.86l2.37.57a18.56,18.56,0,0,1,5.17,1.77,4.71,4.71,0,0,1,2.05,4.24,6.43,6.43,0,0,1-2.14,4.83q-2.15,2-6.54,2-4.72,0-6.69-2.12a8,8,0,0,1-2.11-5.24Z" style="fill:#666"/><path d="M263.5,172.33a5.06,5.06,0,0,0,.9,2.69q1.35,1.69,4.7,1.7a7,7,0,0,0,3.51-.85,2.82,2.82,0,0,0,1.52-2.63,2.25,2.25,0,0,0-1.21-2.05,14.75,14.75,0,0,0-3.06-1l-2.84-.71a13.86,13.86,0,0,1-4-1.48,4.44,4.44,0,0,1-2.3-3.95,6,6,0,0,1,2.17-4.8,8.72,8.72,0,0,1,5.83-1.84q4.79,0,6.9,2.78A5.9,5.9,0,0,1,276.9,164h-3.32a4,4,0,0,0-.86-2.16c-.83-.92-2.26-1.38-4.3-1.38a5.22,5.22,0,0,0-3.09.76,2.36,2.36,0,0,0-1.05,2,2.45,2.45,0,0,0,1.38,2.18,8.35,8.35,0,0,0,2.35.86l2.37.57a18.56,18.56,0,0,1,5.17,1.77,4.71,4.71,0,0,1,2.05,4.24,6.43,6.43,0,0,1-2.14,4.83q-2.15,2-6.54,2-4.73,0-6.69-2.12a8,8,0,0,1-2.11-5.24Z" style="fill:#666"/><path d="M283.27,158.24h4.08v4.26h-4.08Zm0,16.39h4.08v4.26h-4.08Z" style="fill:#666"/><rect x="336.05" y="140.36" width="990.42" height="49.65" rx="3" style="fill:#fff;stroke:#e2e2e2;stroke-miterlimit:10;stroke-width:3px"/><path d="M65,234.88H76.51a10.76,10.76,0,0,1,9.06,4.2,15.66,15.66,0,0,1,2.87,9.71,19.55,19.55,0,0,1-1.7,8.26q-3,6.52-10.27,6.52H65Zm10.71,25.37a10.12,10.12,0,0,0,3.17-.41,6.94,6.94,0,0,0,3.62-2.93,12.1,12.1,0,0,0,1.63-4.45,17.38,17.38,0,0,0,.28-3q0-5.32-2.07-8.28c-1.38-2-3.6-2.95-6.67-2.95H69v22Z" style="fill:#666"/><path d="M106.2,243.23a8,8,0,0,1,3.17,2.71,9.24,9.24,0,0,1,1.39,3.69,23.85,23.85,0,0,1,.32,4.61H95.86a9,9,0,0,0,1.49,5.12,5,5,0,0,0,4.32,1.93,5.53,5.53,0,0,0,4.36-1.83,6.23,6.23,0,0,0,1.3-2.45h3.45a7.12,7.12,0,0,1-.91,2.57,8.86,8.86,0,0,1-1.72,2.31,8,8,0,0,1-3.93,2.11,11.77,11.77,0,0,1-2.85.32,8.72,8.72,0,0,1-6.58-2.85q-2.7-2.84-2.7-8a12.1,12.1,0,0,1,2.72-8.19,9,9,0,0,1,7.1-3.14A9.49,9.49,0,0,1,106.2,243.23Zm1.26,8.22a9.08,9.08,0,0,0-1-3.66,5.05,5.05,0,0,0-4.78-2.54,5.32,5.32,0,0,0-4,1.75,6.65,6.65,0,0,0-1.72,4.45Z" style="fill:#666"/><path d="M117.62,257a5,5,0,0,0,.89,2.7q1.36,1.69,4.71,1.7a7.12,7.12,0,0,0,3.51-.85,2.82,2.82,0,0,0,1.51-2.63,2.23,2.23,0,0,0-1.21-2.05,14.24,14.24,0,0,0-3-1l-2.84-.7a14,14,0,0,1-4-1.48,4.42,4.42,0,0,1-2.3-3.95A6,6,0,0,1,117,244a8.71,8.71,0,0,1,5.83-1.84c3.19,0,5.5.92,6.91,2.77a6,6,0,0,1,1.29,3.79H127.7a4,4,0,0,0-.86-2.15c-.83-.92-2.26-1.38-4.3-1.38a5.22,5.22,0,0,0-3.09.76,2.34,2.34,0,0,0-1,2,2.45,2.45,0,0,0,1.38,2.18,8.55,8.55,0,0,0,2.35.86l2.37.56a19,19,0,0,1,5.17,1.78,4.7,4.7,0,0,1,2.05,4.24,6.42,6.42,0,0,1-2.15,4.82c-1.43,1.36-3.6,2-6.53,2q-4.73,0-6.69-2.12a7.93,7.93,0,0,1-2.11-5.25Z" style="fill:#666"/><path d="M149.35,243.77q2.21,1.72,2.66,5.92h-3.42a6.3,6.3,0,0,0-1.42-3.22,4.51,4.51,0,0,0-3.58-1.27,4.94,4.94,0,0,0-4.8,3.27,12.94,12.94,0,0,0-.94,5.25,9.85,9.85,0,0,0,1.33,5.29,5.17,5.17,0,0,0,7.65.81,7.28,7.28,0,0,0,1.76-3.65H152c-.39,2.78-1.36,4.8-2.93,6.09a9.14,9.14,0,0,1-6,1.92,8,8,0,0,1-6.55-3,11.51,11.51,0,0,1-2.44-7.49q0-5.5,2.68-8.57a8.61,8.61,0,0,1,6.81-3.07A9.12,9.12,0,0,1,149.35,243.77Z" style="fill:#666"/><path d="M155.63,242.66H159v3.61a7.93,7.93,0,0,1,2-2.57,5.2,5.2,0,0,1,3.69-1.51,2.48,2.48,0,0,1,.33,0l.8.08V246a4.56,4.56,0,0,0-.57-.08l-.58,0a5,5,0,0,0-4.08,1.71,6,6,0,0,0-1.43,3.93v12h-3.51Z" style="fill:#666"/><path d="M168.85,234.88h3.57v4h-3.57Zm0,7.87h3.57v20.82h-3.57Z" style="fill:#666"/><path d="M177.44,242.75h3.44v2.78a8.56,8.56,0,0,1,2.31-2.21,7.48,7.48,0,0,1,4.19-1.17,7.9,7.9,0,0,1,6.05,2.72c1.66,1.82,2.49,4.41,2.49,7.79q0,6.82-3.59,9.76a8.12,8.12,0,0,1-5.29,1.86,7.21,7.21,0,0,1-4-1,9.07,9.07,0,0,1-2.1-2v10.68h-3.52Zm13.23,16.4c1.09-1.37,1.64-3.43,1.64-6.16a11.54,11.54,0,0,0-.73-4.3,5.31,5.31,0,0,0-10,.2,14.23,14.23,0,0,0-.73,5,10.36,10.36,0,0,0,.73,4.12,5,5,0,0,0,5,3.24A5,5,0,0,0,190.67,259.15Z" style="fill:#666"/><path d="M200.68,236.82h3.56v5.84h3.34v2.87h-3.34v13.65a1.47,1.47,0,0,0,.74,1.46,3,3,0,0,0,1.37.22h.55a6.83,6.83,0,0,0,.68-.07v2.79a7.21,7.21,0,0,1-1.26.26,12.51,12.51,0,0,1-1.42.08c-1.64,0-2.75-.42-3.34-1.26a5.64,5.64,0,0,1-.88-3.27V245.53h-2.83v-2.87h2.83Z" style="fill:#666"/><path d="M211.09,234.88h3.58v4h-3.58Zm0,7.87h3.58v20.82h-3.58Z" style="fill:#666"/><path d="M235.14,244.74q2.78,2.7,2.77,7.93a13.64,13.64,0,0,1-2.44,8.35q-2.44,3.3-7.59,3.3a8.55,8.55,0,0,1-6.8-2.92,11.59,11.59,0,0,1-2.52-7.84,12.54,12.54,0,0,1,2.65-8.39,8.9,8.9,0,0,1,7.14-3.12A9.39,9.39,0,0,1,235.14,244.74ZM233,258.65a13.42,13.42,0,0,0,1.28-5.89,10.56,10.56,0,0,0-.93-4.76,5.2,5.2,0,0,0-5.06-2.88,5,5,0,0,0-4.63,2.46,11.41,11.41,0,0,0-1.45,5.93,10,10,0,0,0,1.45,5.56,5.08,5.08,0,0,0,4.59,2.22Q231.68,261.29,233,258.65Z" style="fill:#666"/><path d="M242.23,242.66h3.34v3a9.32,9.32,0,0,1,3.14-2.64,8.32,8.32,0,0,1,3.69-.8q4.46,0,6,3.1a11.12,11.12,0,0,1,.86,4.87v13.41H255.7V250.39a7.14,7.14,0,0,0-.56-3.09,3.44,3.44,0,0,0-3.4-2,6.87,6.87,0,0,0-2.05.26,5.26,5.26,0,0,0-2.54,1.71,5.09,5.09,0,0,0-1.14,2.14,14.13,14.13,0,0,0-.27,3.16v10.95h-3.51Z" style="fill:#666"/><path d="M266.33,242.93h4.08v4.26h-4.08Zm0,16.39h4.08v4.25h-4.08Z" style="fill:#666"/><path d="M65.33,345.71h13a12.82,12.82,0,0,1,5.32,1c2.64,1.23,4,3.48,4,6.78a7.05,7.05,0,0,1-4,6.85,5.89,5.89,0,0,1,2.53,1.8,6.38,6.38,0,0,1,1,3.61l.14,3.85A12.16,12.16,0,0,0,87.5,372a2.42,2.42,0,0,0,1.25,1.76v.64H84a3.5,3.5,0,0,1-.32-.95,18,18,0,0,1-.19-2.27l-.24-4.78c-.09-1.88-.76-3.13-2-3.77a8.17,8.17,0,0,0-3.39-.53h-8.6v12.3H65.33ZM78,358.86a7.14,7.14,0,0,0,4.2-1.1c1-.72,1.55-2,1.55-3.94s-.72-3.44-2.16-4.18a7,7,0,0,0-3.1-.59H69.22v9.81Z" style="fill:#666"/><path d="M104.49,361.75a1.92,1.92,0,0,0,1.62-1,3,3,0,0,0,.24-1.35,2.88,2.88,0,0,0-1.28-2.62,6.83,6.83,0,0,0-3.65-.81,4.64,4.64,0,0,0-3.9,1.49,4.93,4.93,0,0,0-.84,2.45H93.4q.09-3.87,2.51-5.39A10.24,10.24,0,0,1,101.5,353a11.31,11.31,0,0,1,6,1.41,4.74,4.74,0,0,1,2.29,4.37v12.05a1.53,1.53,0,0,0,.22.88,1.1,1.1,0,0,0,1,.33l.53,0c.19,0,.4,0,.62-.08v2.59a9.58,9.58,0,0,1-1.25.3,11.69,11.69,0,0,1-1.17.05,2.92,2.92,0,0,1-2.64-1.28,5,5,0,0,1-.6-1.94,9,9,0,0,1-3.09,2.44,9.55,9.55,0,0,1-4.43,1,6.6,6.6,0,0,1-4.76-1.77,5.85,5.85,0,0,1-1.84-4.42,5.69,5.69,0,0,1,1.81-4.5,8.64,8.64,0,0,1,4.77-2Zm-7.4,9.49a4.1,4.1,0,0,0,2.64.88,8.07,8.07,0,0,0,3.59-.86,4.83,4.83,0,0,0,2.93-4.66v-2.83a5.72,5.72,0,0,1-1.66.69,14.42,14.42,0,0,1-2,.39l-2.13.27a8.31,8.31,0,0,0-2.87.8A3.11,3.11,0,0,0,96,368.85,2.87,2.87,0,0,0,97.09,371.24Z" style="fill:#666"/><path d="M115.53,353.49h3.34v3a9.32,9.32,0,0,1,3.14-2.64,8.46,8.46,0,0,1,3.69-.8q4.45,0,6,3.1a11.12,11.12,0,0,1,.86,4.87V374.4H129V361.22a7.1,7.1,0,0,0-.56-3.08,3.43,3.43,0,0,0-3.4-2,6.87,6.87,0,0,0-2.05.26,5.31,5.31,0,0,0-2.54,1.71,5.15,5.15,0,0,0-1.14,2.14,14.13,14.13,0,0,0-.27,3.16V374.4h-3.51Z" style="fill:#666"/><path d="M137.7,345.71h3.38v16.66l9-8.88h4.49l-8,7.78L155,374.4h-4.49L144,363.76l-2.88,2.79v7.85H137.7Z" style="fill:#666"/><path d="M159.86,367.84a5.13,5.13,0,0,0,.9,2.7q1.35,1.69,4.71,1.7a7.11,7.11,0,0,0,3.5-.85,2.82,2.82,0,0,0,1.52-2.63,2.23,2.23,0,0,0-1.21-2.05,14.6,14.6,0,0,0-3.06-1l-2.84-.7a14.16,14.16,0,0,1-4-1.48,4.44,4.44,0,0,1-2.3-3.95,6,6,0,0,1,2.17-4.8,8.69,8.69,0,0,1,5.83-1.84q4.78,0,6.91,2.77a6,6,0,0,1,1.28,3.79h-3.32a3.86,3.86,0,0,0-.86-2.15c-.82-.92-2.26-1.38-4.3-1.38a5.16,5.16,0,0,0-3.08.76,2.34,2.34,0,0,0-1,2,2.46,2.46,0,0,0,1.37,2.18,8.47,8.47,0,0,0,2.35.86l2.37.56a18.82,18.82,0,0,1,5.17,1.78,4.71,4.71,0,0,1,2.06,4.24,6.42,6.42,0,0,1-2.15,4.82q-2.15,2-6.53,2-4.74,0-6.7-2.12a8,8,0,0,1-2.1-5.25Z" style="fill:#666"/><rect x="336.05" y="225.04" width="990.42" height="106.85" rx="3" style="fill:#fff;stroke:#e2e2e2;stroke-miterlimit:10;stroke-width:3px"/><path d="M379.28,243.94a6.87,6.87,0,0,1,2.23,4.4H379a4.88,4.88,0,0,0-5.28-4.06,5.68,5.68,0,0,0-4.54,2q-1.72,2-1.73,6.16A9.12,9.12,0,0,0,369,258a5.42,5.42,0,0,0,4.66,2.11,4.91,4.91,0,0,0,4.34-2.22,8.83,8.83,0,0,0,1.18-3.09h2.55a8.74,8.74,0,0,1-2.24,5.13,7.93,7.93,0,0,1-6.15,2.49,8.07,8.07,0,0,1-5.6-2c-2-1.81-3-4.59-3-8.36a10.79,10.79,0,0,1,2.24-7,8.18,8.18,0,0,1,6.69-3A7.8,7.8,0,0,1,379.28,243.94Z" style="fill:#fff"/><path d="M384.83,242.53h2.37V261.9h-2.37Z" style="fill:#fff"/><path d="M401,249.19a7.1,7.1,0,0,1,1.88,5.34,9.2,9.2,0,0,1-1.65,5.64,6,6,0,0,1-5.12,2.23,5.79,5.79,0,0,1-4.6-2,7.84,7.84,0,0,1-1.7-5.29,8.46,8.46,0,0,1,1.79-5.66,6,6,0,0,1,4.82-2.11A6.27,6.27,0,0,1,401,249.19Zm-1.47,9.38a8.93,8.93,0,0,0,.87-4,7.05,7.05,0,0,0-.63-3.21,3.51,3.51,0,0,0-3.41-1.95,3.35,3.35,0,0,0-3.13,1.66,7.75,7.75,0,0,0-1,4,6.75,6.75,0,0,0,1,3.75,3.42,3.42,0,0,0,3.1,1.5A3.22,3.22,0,0,0,399.52,258.57Z" style="fill:#fff"/><path d="M405.78,247.78H408v2a6.29,6.29,0,0,1,2.13-1.78,5.62,5.62,0,0,1,2.49-.54c2,0,3.36.7,4.06,2.1a7.38,7.38,0,0,1,.58,3.28v9.06h-2.41V253a4.94,4.94,0,0,0-.38-2.09,2.34,2.34,0,0,0-2.3-1.31,4.47,4.47,0,0,0-1.38.17,3.55,3.55,0,0,0-1.72,1.16,3.5,3.5,0,0,0-.77,1.44,9.66,9.66,0,0,0-.18,2.13v7.4h-2.37Z" style="fill:#fff"/><path d="M429.52,248.17a5.33,5.33,0,0,1,2.13,1.82,6.37,6.37,0,0,1,1,2.49,16.38,16.38,0,0,1,.21,3.11H422.54a6.14,6.14,0,0,0,1,3.46,3.36,3.36,0,0,0,2.92,1.3,3.74,3.74,0,0,0,2.94-1.23,4.16,4.16,0,0,0,.87-1.65h2.34a5,5,0,0,1-.61,1.73,6.11,6.11,0,0,1-1.17,1.56,5.44,5.44,0,0,1-2.65,1.43,8.09,8.09,0,0,1-1.93.21,5.91,5.91,0,0,1-4.44-1.92,7.51,7.51,0,0,1-1.82-5.37,8.14,8.14,0,0,1,1.84-5.53,6,6,0,0,1,4.79-2.12A6.4,6.4,0,0,1,429.52,248.17Zm.85,5.54a6.27,6.27,0,0,0-.67-2.47,3.41,3.41,0,0,0-3.23-1.71,3.55,3.55,0,0,0-2.72,1.18,4.48,4.48,0,0,0-1.16,3Z" style="fill:#fff"/><rect x="361.53" y="78.74" width="203.04" height="7.52" rx="3" style="fill:#999;opacity:0.4"/><rect x="361.53" y="161.42" width="138.16" height="7.52" rx="3" style="fill:#999;opacity:0.4"/><rect x="361.53" y="246.11" width="856.98" height="7.52" rx="3" style="fill:#999;opacity:0.4"/><rect x="361.53" y="268.67" width="883.71" height="7.52" rx="3" style="fill:#999;opacity:0.4"/><rect x="361.53" y="293.41" width="856.98" height="7.52" rx="3" style="fill:#999;opacity:0.4"/><path d="M361.11,428.84h2.52l7.87,12.75V428.84h2v15.78h-2.4l-8-12.73v12.73h-2Z" style="fill:#666"/><path d="M382.91,437.66a1,1,0,0,0,.89-.56,1.64,1.64,0,0,0,.13-.74,1.58,1.58,0,0,0-.7-1.44,3.74,3.74,0,0,0-2-.45,2.56,2.56,0,0,0-2.15.82,2.74,2.74,0,0,0-.46,1.35h-1.8a3.32,3.32,0,0,1,1.38-3,5.67,5.67,0,0,1,3.07-.83,6.28,6.28,0,0,1,3.29.77,2.63,2.63,0,0,1,1.26,2.41v6.63a.85.85,0,0,0,.12.48.61.61,0,0,0,.52.18h.29l.35-.05v1.43a6.08,6.08,0,0,1-.69.16,5.36,5.36,0,0,1-.64,0,1.59,1.59,0,0,1-1.45-.71,2.75,2.75,0,0,1-.34-1.06,5,5,0,0,1-1.69,1.34,5.25,5.25,0,0,1-2.44.57,3.67,3.67,0,0,1-2.62-1,3.25,3.25,0,0,1-1-2.43,3.12,3.12,0,0,1,1-2.48,4.67,4.67,0,0,1,2.62-1.08Zm-4.07,5.22a2.28,2.28,0,0,0,1.45.48,4.37,4.37,0,0,0,2-.47,2.65,2.65,0,0,0,1.61-2.56v-1.55a3.37,3.37,0,0,1-.91.37,9.3,9.3,0,0,1-1.1.22l-1.17.15a4.5,4.5,0,0,0-1.58.44,1.71,1.71,0,0,0-.89,1.6A1.58,1.58,0,0,0,378.84,442.88Z" style="fill:#666"/><path d="M389,433.12h1.91v1.63a6.26,6.26,0,0,1,1.25-1.24,3.78,3.78,0,0,1,2.17-.65,3.06,3.06,0,0,1,3.07,1.81,4.13,4.13,0,0,1,1.51-1.36,4.22,4.22,0,0,1,2-.45,3.21,3.21,0,0,1,3.16,1.67,5.55,5.55,0,0,1,.45,2.43v7.66h-2v-8a1.87,1.87,0,0,0-.57-1.58,2.29,2.29,0,0,0-1.41-.43,2.77,2.77,0,0,0-2,.76,3.39,3.39,0,0,0-.82,2.55v6.69h-2v-7.51a4,4,0,0,0-.28-1.71,1.73,1.73,0,0,0-1.65-.8,2.82,2.82,0,0,0-2,.85,4.14,4.14,0,0,0-.9,3.07v6.1H389Z" style="fill:#666"/><path d="M414.41,433.43a4.43,4.43,0,0,1,1.74,1.49,5.11,5.11,0,0,1,.77,2,13.78,13.78,0,0,1,.17,2.54h-8.37a5,5,0,0,0,.82,2.81,2.75,2.75,0,0,0,2.38,1.06,3.06,3.06,0,0,0,2.4-1A3.5,3.5,0,0,0,415,441h1.9a3.94,3.94,0,0,1-.5,1.41,5,5,0,0,1-.95,1.28,4.45,4.45,0,0,1-2.16,1.16,6.74,6.74,0,0,1-1.57.17,4.81,4.81,0,0,1-3.62-1.56,6.11,6.11,0,0,1-1.48-4.38,6.66,6.66,0,0,1,1.49-4.5,4.94,4.94,0,0,1,3.91-1.73A5.23,5.23,0,0,1,414.41,433.43Zm.69,4.52a5,5,0,0,0-.54-2,2.77,2.77,0,0,0-2.63-1.39,2.92,2.92,0,0,0-2.22,1,3.63,3.63,0,0,0-.94,2.44Z" style="fill:#666"/><path d="M159.38,430a5.59,5.59,0,0,1,1.81,3.59h-2.08a4.44,4.44,0,0,0-1.39-2.42,4.37,4.37,0,0,0-2.92-.89,4.66,4.66,0,0,0-3.7,1.64,7.63,7.63,0,0,0-1.4,5,7.42,7.42,0,0,0,1.27,4.5,4.4,4.4,0,0,0,3.79,1.72,4,4,0,0,0,3.54-1.81,7,7,0,0,0,1-2.52h2.08a7.15,7.15,0,0,1-1.82,4.18,7.15,7.15,0,0,1-9.58.36q-2.43-2.19-2.43-6.8a8.75,8.75,0,0,1,1.82-5.73,6.64,6.64,0,0,1,5.45-2.43A6.37,6.37,0,0,1,159.38,430Z" style="fill:#666"/><path d="M172.18,434.27a5.76,5.76,0,0,1,1.53,4.35,7.49,7.49,0,0,1-1.35,4.6,4.83,4.83,0,0,1-4.17,1.81,4.71,4.71,0,0,1-3.74-1.6,6.34,6.34,0,0,1-1.39-4.31,6.91,6.91,0,0,1,1.46-4.62,4.92,4.92,0,0,1,3.93-1.72A5.15,5.15,0,0,1,172.18,434.27Zm-1.2,7.64a7.32,7.32,0,0,0,.71-3.23,5.79,5.79,0,0,0-.51-2.62,2.87,2.87,0,0,0-2.79-1.59,2.74,2.74,0,0,0-2.55,1.35,6.32,6.32,0,0,0-.79,3.26,5.48,5.48,0,0,0,.79,3.06,2.79,2.79,0,0,0,2.53,1.22A2.63,2.63,0,0,0,171,441.91Z" style="fill:#666"/><path d="M176.13,428.84h1.94v15.78h-1.94Z" style="fill:#666"/><path d="M189.3,434.27a5.76,5.76,0,0,1,1.53,4.35,7.49,7.49,0,0,1-1.35,4.6,4.83,4.83,0,0,1-4.17,1.81,4.71,4.71,0,0,1-3.74-1.6,6.34,6.34,0,0,1-1.39-4.31,6.91,6.91,0,0,1,1.46-4.62,4.93,4.93,0,0,1,3.93-1.72A5.14,5.14,0,0,1,189.3,434.27Zm-1.2,7.64a7.32,7.32,0,0,0,.71-3.23,5.79,5.79,0,0,0-.51-2.62,2.87,2.87,0,0,0-2.78-1.59,2.74,2.74,0,0,0-2.55,1.35,6.33,6.33,0,0,0-.8,3.26,5.48,5.48,0,0,0,.8,3.06,2.78,2.78,0,0,0,2.53,1.22A2.62,2.62,0,0,0,188.1,441.91Z" style="fill:#666"/><path d="M193.26,433.12h1.83v2a4.49,4.49,0,0,1,1.11-1.41,2.89,2.89,0,0,1,2-.83h.18l.44,0v2l-.31,0h-.32a2.77,2.77,0,0,0-2.25.94,3.3,3.3,0,0,0-.78,2.16v6.62h-1.93Z" style="fill:#666"/><path d="M628,428.84h6.3a5.94,5.94,0,0,1,5,2.31,8.61,8.61,0,0,1,1.57,5.34,10.78,10.78,0,0,1-.93,4.54,5.75,5.75,0,0,1-5.65,3.59H628Zm5.88,14a5.74,5.74,0,0,0,1.75-.22,3.88,3.88,0,0,0,2-1.61,6.78,6.78,0,0,0,.9-2.45,10.12,10.12,0,0,0,.15-1.66,7.83,7.83,0,0,0-1.14-4.55,4.17,4.17,0,0,0-3.67-1.62H630.1v12.11Z" style="fill:#666"/><path d="M649.64,437.66a1.07,1.07,0,0,0,.9-.56,1.78,1.78,0,0,0,.13-.74,1.58,1.58,0,0,0-.71-1.44,3.74,3.74,0,0,0-2-.45,2.54,2.54,0,0,0-2.14.82,2.64,2.64,0,0,0-.46,1.35h-1.81a3.36,3.36,0,0,1,1.38-3,5.64,5.64,0,0,1,3.08-.83,6.19,6.19,0,0,1,3.29.77,2.63,2.63,0,0,1,1.26,2.41v6.63a.85.85,0,0,0,.12.48c.08.12.25.18.52.18l.29,0,.34,0v1.42c-.3.09-.53.14-.68.17a5.55,5.55,0,0,1-.65,0,1.6,1.6,0,0,1-1.45-.71,2.65,2.65,0,0,1-.33-1.06,5,5,0,0,1-1.7,1.34,5.25,5.25,0,0,1-2.44.57,3.65,3.65,0,0,1-2.61-1,3.22,3.22,0,0,1-1-2.43,3.1,3.1,0,0,1,1-2.48,4.78,4.78,0,0,1,2.62-1.09Zm-4.07,5.22a2.3,2.3,0,0,0,1.45.48,4.37,4.37,0,0,0,2-.47,2.65,2.65,0,0,0,1.61-2.56v-1.56a3.24,3.24,0,0,1-.91.38,9.15,9.15,0,0,1-1.09.22l-1.17.15a4.44,4.44,0,0,0-1.58.44,1.7,1.7,0,0,0-.9,1.6A1.61,1.61,0,0,0,645.57,442.88Z" style="fill:#666"/><path d="M662.91,433.12H665c-.27.73-.87,2.42-1.81,5.05-.7,2-1.29,3.59-1.76,4.83a33.44,33.44,0,0,1-2.36,5.37,2.73,2.73,0,0,1-2.37,1,3.29,3.29,0,0,1-.62,0l-.55-.11v-1.77c.34.1.58.15.73.18l.4,0a1.38,1.38,0,0,0,.79-.18,1.56,1.56,0,0,0,.42-.43c0-.06.17-.35.39-.88s.38-.92.48-1.18l-4.25-11.84h2.19l3.08,9.37Z" style="fill:#666"/><path d="M667.86,441a2.75,2.75,0,0,0,.5,1.48,3.1,3.1,0,0,0,2.58.94,3.88,3.88,0,0,0,1.93-.47,1.54,1.54,0,0,0,.84-1.44,1.22,1.22,0,0,0-.67-1.13,7.8,7.8,0,0,0-1.68-.55l-1.56-.39a7.72,7.72,0,0,1-2.21-.81,2.45,2.45,0,0,1-1.26-2.17,3.3,3.3,0,0,1,1.19-2.65,4.8,4.8,0,0,1,3.21-1,4.45,4.45,0,0,1,3.79,1.52,3.24,3.24,0,0,1,.71,2.08h-1.82a2.19,2.19,0,0,0-.48-1.18,3,3,0,0,0-2.36-.76,2.88,2.88,0,0,0-1.7.42,1.31,1.31,0,0,0-.58,1.1,1.37,1.37,0,0,0,.76,1.2,4.65,4.65,0,0,0,1.29.47l1.31.31a10.12,10.12,0,0,1,2.84,1,2.59,2.59,0,0,1,1.13,2.33,3.5,3.5,0,0,1-1.18,2.65,5.06,5.06,0,0,1-3.6,1.12,4.89,4.89,0,0,1-3.68-1.16A4.39,4.39,0,0,1,666,441Z" style="fill:#666"/><path d="M684.21,429.9h2v3.22H688v1.58h-1.84v7.5a.8.8,0,0,0,.41.81,1.7,1.7,0,0,0,.75.12h.3a3.08,3.08,0,0,0,.38,0v1.54a4.13,4.13,0,0,1-.7.14,6.35,6.35,0,0,1-.78,0,2.09,2.09,0,0,1-1.83-.69,3,3,0,0,1-.49-1.8V434.7h-1.55v-1.58h1.55Z" style="fill:#666"/><path d="M698.27,434.26a5.8,5.8,0,0,1,1.53,4.36,7.55,7.55,0,0,1-1.34,4.6,4.88,4.88,0,0,1-4.17,1.81,4.71,4.71,0,0,1-3.75-1.61,6.36,6.36,0,0,1-1.39-4.31,6.86,6.86,0,0,1,1.47-4.61,4.89,4.89,0,0,1,3.92-1.72A5.17,5.17,0,0,1,698.27,434.26Zm-1.2,7.65a7.19,7.19,0,0,0,.71-3.23,5.79,5.79,0,0,0-.51-2.62,2.87,2.87,0,0,0-2.78-1.59,2.74,2.74,0,0,0-2.55,1.35,6.33,6.33,0,0,0-.8,3.26,5.48,5.48,0,0,0,.8,3.06,2.78,2.78,0,0,0,2.53,1.22A2.62,2.62,0,0,0,697.07,441.91Z" style="fill:#666"/><path d="M708.8,428.84H716a7.07,7.07,0,0,1,2.93.53,3.73,3.73,0,0,1,2.18,3.72,4.18,4.18,0,0,1-.59,2.32,4.11,4.11,0,0,1-1.63,1.45,3.41,3.41,0,0,1,1.39,1,3.6,3.6,0,0,1,.52,2l.07,2.12a8,8,0,0,0,.15,1.34,1.35,1.35,0,0,0,.69,1v.35h-2.62a1.83,1.83,0,0,1-.17-.53,10.76,10.76,0,0,1-.11-1.24l-.13-2.63a2.24,2.24,0,0,0-1.11-2.08,4.57,4.57,0,0,0-1.87-.29h-4.73v6.77H708.8Zm7,7.23a4,4,0,0,0,2.31-.6,2.48,2.48,0,0,0,.85-2.17,2.35,2.35,0,0,0-1.19-2.3,3.73,3.73,0,0,0-1.7-.32h-5.08v5.39Z" style="fill:#666"/><path d="M731.28,433.43a4.43,4.43,0,0,1,1.74,1.49,5.27,5.27,0,0,1,.77,2,13.78,13.78,0,0,1,.17,2.54h-8.37a5,5,0,0,0,.82,2.81,2.74,2.74,0,0,0,2.38,1.06,3.06,3.06,0,0,0,2.4-1,3.5,3.5,0,0,0,.71-1.35h1.9a4.07,4.07,0,0,1-.5,1.41,5,5,0,0,1-.95,1.28,4.45,4.45,0,0,1-2.16,1.16,6.8,6.8,0,0,1-1.57.17,4.81,4.81,0,0,1-3.62-1.56,6.13,6.13,0,0,1-1.48-4.38,6.66,6.66,0,0,1,1.49-4.5,4.9,4.9,0,0,1,3.91-1.73A5.23,5.23,0,0,1,731.28,433.43ZM732,438a5.13,5.13,0,0,0-.54-2,2.78,2.78,0,0,0-2.63-1.4,2.9,2.9,0,0,0-2.22,1,3.69,3.69,0,0,0-1,2.44Z" style="fill:#666"/><path d="M742.58,437.66a1.07,1.07,0,0,0,.89-.56,1.78,1.78,0,0,0,.13-.74,1.58,1.58,0,0,0-.71-1.44,3.69,3.69,0,0,0-2-.45,2.54,2.54,0,0,0-2.14.82,2.64,2.64,0,0,0-.46,1.35h-1.81a3.36,3.36,0,0,1,1.38-3,5.64,5.64,0,0,1,3.08-.83,6.19,6.19,0,0,1,3.29.77,2.63,2.63,0,0,1,1.26,2.41v6.63a.85.85,0,0,0,.12.48.6.6,0,0,0,.52.18l.29,0,.34,0v1.42c-.3.09-.53.14-.68.17a5.55,5.55,0,0,1-.65,0,1.6,1.6,0,0,1-1.45-.71,2.65,2.65,0,0,1-.33-1.06,5,5,0,0,1-1.7,1.34,5.25,5.25,0,0,1-2.44.57,3.65,3.65,0,0,1-2.61-1,3.22,3.22,0,0,1-1-2.43,3.14,3.14,0,0,1,1-2.48,4.78,4.78,0,0,1,2.62-1.09Zm-4.08,5.22a2.3,2.3,0,0,0,1.45.48,4.37,4.37,0,0,0,2-.47,2.64,2.64,0,0,0,1.61-2.56v-1.56a3.24,3.24,0,0,1-.91.38,9.15,9.15,0,0,1-1.09.22l-1.17.15a4.44,4.44,0,0,0-1.58.44,1.7,1.7,0,0,0-.9,1.6A1.61,1.61,0,0,0,738.5,442.88Z" style="fill:#666"/><path d="M755,433.47a5.19,5.19,0,0,1,1.16,1.13v-5.81H758v15.83h-1.74V443a4.23,4.23,0,0,1-1.59,1.54,4.65,4.65,0,0,1-2.11.47,4.25,4.25,0,0,1-3.32-1.62,6.36,6.36,0,0,1-1.4-4.3,7.4,7.4,0,0,1,1.28-4.36,4.19,4.19,0,0,1,3.65-1.84A4.12,4.12,0,0,1,755,433.47Zm-4.32,8.63a2.72,2.72,0,0,0,2.5,1.24,2.64,2.64,0,0,0,2.2-1.15,5.52,5.52,0,0,0,.86-3.32,4.89,4.89,0,0,0-.89-3.22,2.75,2.75,0,0,0-2.19-1,2.88,2.88,0,0,0-2.36,1.12,5.13,5.13,0,0,0-.9,3.28A5.75,5.75,0,0,0,750.65,442.1Z" style="fill:#666"/><path d="M768.07,433.12h2.14c-.27.73-.88,2.42-1.82,5.05-.7,2-1.28,3.59-1.76,4.83a31.62,31.62,0,0,1-2.36,5.37,2.71,2.71,0,0,1-2.36,1,3.48,3.48,0,0,1-.63,0l-.54-.11v-1.77c.34.1.58.15.73.18l.4,0a1.34,1.34,0,0,0,.78-.18,1.76,1.76,0,0,0,.43-.43c0-.06.16-.35.38-.88s.39-.92.49-1.18l-4.26-11.84h2.19l3.09,9.37Z" style="fill:#666"/><path d="M837.28,428.84h2.41l5.73,15.78h-2.35l-1.64-4.72h-6.19l-1.71,4.72h-2.2Zm3.54,9.31-2.43-7-2.52,7Z" style="fill:#666"/><path d="M847.47,429.9h2v3.22h1.84v1.58h-1.84v7.5a.8.8,0,0,0,.41.81,1.7,1.7,0,0,0,.75.12h.3l.38,0v1.53a4.13,4.13,0,0,1-.7.14,6.35,6.35,0,0,1-.78,0,2.09,2.09,0,0,1-1.83-.69,3,3,0,0,1-.49-1.8V434.7h-1.55v-1.58h1.55Z" style="fill:#666"/><path d="M853.59,429.9h1.95v3.22h1.84v1.58h-1.84v7.5a.82.82,0,0,0,.41.81,1.7,1.7,0,0,0,.75.12h.3l.38,0v1.53a4,4,0,0,1-.69.14,6.35,6.35,0,0,1-.78,0,2.1,2.1,0,0,1-1.84-.69,3.09,3.09,0,0,1-.48-1.8V434.7H852v-1.58h1.56Z" style="fill:#666"/><path d="M866.42,433.43a4.43,4.43,0,0,1,1.74,1.49,5.27,5.27,0,0,1,.77,2,13.78,13.78,0,0,1,.17,2.54h-8.37a5,5,0,0,0,.82,2.81,2.72,2.72,0,0,0,2.38,1.06,3.06,3.06,0,0,0,2.4-1A3.5,3.5,0,0,0,867,441h1.9a3.94,3.94,0,0,1-.5,1.41,5.26,5.26,0,0,1-1,1.28,4.45,4.45,0,0,1-2.16,1.16,6.87,6.87,0,0,1-1.57.17,4.81,4.81,0,0,1-3.62-1.56,6.11,6.11,0,0,1-1.48-4.38,6.61,6.61,0,0,1,1.49-4.5,4.94,4.94,0,0,1,3.91-1.73A5.23,5.23,0,0,1,866.42,433.43Zm.69,4.52a5.13,5.13,0,0,0-.54-2,2.79,2.79,0,0,0-2.63-1.39,2.92,2.92,0,0,0-2.22,1,3.64,3.64,0,0,0-1,2.44Z" style="fill:#666"/><path d="M871.55,433.12h1.83v1.63a5.19,5.19,0,0,1,1.73-1.45,4.68,4.68,0,0,1,2-.44,3.34,3.34,0,0,1,3.31,1.71,6,6,0,0,1,.47,2.67v7.38h-2v-7.25a3.91,3.91,0,0,0-.31-1.7,1.9,1.9,0,0,0-1.87-1.07,3.9,3.9,0,0,0-1.13.14,2.93,2.93,0,0,0-1.4.94,2.81,2.81,0,0,0-.62,1.18,7.7,7.7,0,0,0-.15,1.74v6h-1.93Z" style="fill:#666"/><path d="M890.1,433.47a5.2,5.2,0,0,1,1.17,1.13v-5.81h1.86v15.83h-1.74V443a4.19,4.19,0,0,1-1.6,1.54,4.57,4.57,0,0,1-2.1.47,4.25,4.25,0,0,1-3.32-1.62,6.29,6.29,0,0,1-1.4-4.3,7.49,7.49,0,0,1,1.27-4.36,4.22,4.22,0,0,1,3.66-1.84A4.06,4.06,0,0,1,890.1,433.47Zm-4.31,8.63a2.72,2.72,0,0,0,2.5,1.24,2.61,2.61,0,0,0,2.19-1.15,5.45,5.45,0,0,0,.86-3.32,4.89,4.89,0,0,0-.88-3.22,2.75,2.75,0,0,0-2.19-1,2.88,2.88,0,0,0-2.36,1.12A5.13,5.13,0,0,0,885,439,5.73,5.73,0,0,0,885.79,442.1Z" style="fill:#666"/><path d="M902.18,437.66a1.07,1.07,0,0,0,.9-.56,1.81,1.81,0,0,0,.12-.74,1.58,1.58,0,0,0-.7-1.44,3.74,3.74,0,0,0-2-.45,2.52,2.52,0,0,0-2.14.82,2.64,2.64,0,0,0-.46,1.35h-1.81a3.36,3.36,0,0,1,1.38-3,5.69,5.69,0,0,1,3.07-.83,6.32,6.32,0,0,1,3.3.77,2.62,2.62,0,0,1,1.25,2.41v6.63a.85.85,0,0,0,.13.48c.08.12.25.18.52.18H906l.34-.05v1.43a6.08,6.08,0,0,1-.69.16,5.25,5.25,0,0,1-.64,0,1.59,1.59,0,0,1-1.45-.71,2.6,2.6,0,0,1-.33-1.06,5,5,0,0,1-1.7,1.34,5.25,5.25,0,0,1-2.44.57,3.63,3.63,0,0,1-2.61-1,3.22,3.22,0,0,1-1-2.43,3.12,3.12,0,0,1,1-2.48,4.7,4.7,0,0,1,2.62-1.08Zm-4.07,5.22a2.28,2.28,0,0,0,1.45.48,4.37,4.37,0,0,0,2-.47,2.65,2.65,0,0,0,1.61-2.56v-1.55a3.37,3.37,0,0,1-.91.37,9.15,9.15,0,0,1-1.09.22l-1.17.15a4.44,4.44,0,0,0-1.58.44,1.7,1.7,0,0,0-.9,1.6A1.58,1.58,0,0,0,898.11,442.88Z" style="fill:#666"/><path d="M908.25,433.12h1.84v1.63a5.1,5.1,0,0,1,1.73-1.45,4.65,4.65,0,0,1,2-.44,3.35,3.35,0,0,1,3.31,1.71,6.11,6.11,0,0,1,.47,2.67v7.38h-2v-7.25a3.9,3.9,0,0,0-.32-1.7,1.89,1.89,0,0,0-1.87-1.07,3.87,3.87,0,0,0-1.12.14,3.12,3.12,0,0,0-2,2.12,8.46,8.46,0,0,0-.14,1.74v6h-1.94Z" style="fill:#666"/><path d="M928.09,433.73a4.51,4.51,0,0,1,1.46,3.25h-1.88a3.43,3.43,0,0,0-.78-1.76,2.48,2.48,0,0,0-2-.71,2.71,2.71,0,0,0-2.64,1.81,7.21,7.21,0,0,0-.51,2.88,5.42,5.42,0,0,0,.73,2.91,2.83,2.83,0,0,0,4.2.45,4,4,0,0,0,1-2h1.88a4.53,4.53,0,0,1-4.9,4.4,4.41,4.41,0,0,1-3.6-1.64,6.3,6.3,0,0,1-1.35-4.12,6.9,6.9,0,0,1,1.48-4.72,4.76,4.76,0,0,1,3.74-1.69A5,5,0,0,1,928.09,433.73Z" style="fill:#666"/><path d="M938.59,433.43a4.39,4.39,0,0,1,1.75,1.49,5.1,5.1,0,0,1,.76,2,12.94,12.94,0,0,1,.17,2.54h-8.36a4.9,4.9,0,0,0,.82,2.81,2.72,2.72,0,0,0,2.37,1.06,3,3,0,0,0,2.4-1,3.37,3.37,0,0,0,.71-1.35h1.9a3.76,3.76,0,0,1-.5,1.41,5,5,0,0,1-.94,1.28,4.53,4.53,0,0,1-2.17,1.16,6.71,6.71,0,0,1-1.56.17,4.8,4.8,0,0,1-3.62-1.56,6.12,6.12,0,0,1-1.49-4.38,6.61,6.61,0,0,1,1.5-4.5,4.92,4.92,0,0,1,3.91-1.73A5.19,5.19,0,0,1,938.59,433.43Zm.7,4.52a5,5,0,0,0-.55-2,2.77,2.77,0,0,0-2.63-1.39,2.89,2.89,0,0,0-2.21,1A3.64,3.64,0,0,0,933,438Z" style="fill:#666"/><path d="M950.22,429.9h2v3.22H954v1.58h-1.83v7.5a.8.8,0,0,0,.41.81,1.7,1.7,0,0,0,.75.12h.3l.37,0v1.53a3.83,3.83,0,0,1-.69.14,6.35,6.35,0,0,1-.78,0,2.09,2.09,0,0,1-1.83-.69,3,3,0,0,1-.49-1.8V434.7h-1.55v-1.58h1.55Z" style="fill:#666"/><path d="M964.28,434.27a5.76,5.76,0,0,1,1.53,4.35,7.55,7.55,0,0,1-1.34,4.6A4.85,4.85,0,0,1,960.3,445a4.73,4.73,0,0,1-3.75-1.6,6.4,6.4,0,0,1-1.39-4.31,6.87,6.87,0,0,1,1.47-4.62,4.89,4.89,0,0,1,3.92-1.72A5.14,5.14,0,0,1,964.28,434.27Zm-1.2,7.64a7.32,7.32,0,0,0,.71-3.23,5.79,5.79,0,0,0-.51-2.62,2.87,2.87,0,0,0-2.78-1.59,2.74,2.74,0,0,0-2.55,1.35,6.33,6.33,0,0,0-.8,3.26,5.48,5.48,0,0,0,.8,3.06,2.78,2.78,0,0,0,2.53,1.22A2.62,2.62,0,0,0,963.08,441.91Z" style="fill:#666"/><path d="M974.81,428.84H982a7.07,7.07,0,0,1,2.93.53,3.73,3.73,0,0,1,2.18,3.73,3.9,3.9,0,0,1-2.22,3.77,3.3,3.3,0,0,1,1.39,1,3.6,3.6,0,0,1,.52,2l.07,2.12a7,7,0,0,0,.15,1.34,1.35,1.35,0,0,0,.69,1v.35h-2.62a1.86,1.86,0,0,1-.17-.52,11,11,0,0,1-.11-1.25l-.13-2.63a2.24,2.24,0,0,0-1.11-2.08,4.57,4.57,0,0,0-1.87-.29H977v6.77h-2.14Zm7,7.23a4,4,0,0,0,2.31-.6,2.47,2.47,0,0,0,.85-2.17,2.36,2.36,0,0,0-1.19-2.3,3.87,3.87,0,0,0-1.7-.32H977v5.39Z" style="fill:#666"/><path d="M997.29,433.43a4.43,4.43,0,0,1,1.74,1.49,5.27,5.27,0,0,1,.77,2,13.78,13.78,0,0,1,.17,2.54H991.6a5,5,0,0,0,.82,2.81,2.74,2.74,0,0,0,2.38,1.06,3.06,3.06,0,0,0,2.4-1,3.5,3.5,0,0,0,.71-1.35h1.9a3.94,3.94,0,0,1-.5,1.41,5,5,0,0,1-.95,1.28,4.45,4.45,0,0,1-2.16,1.16,6.8,6.8,0,0,1-1.57.17,4.81,4.81,0,0,1-3.62-1.56,6.11,6.11,0,0,1-1.48-4.38,6.66,6.66,0,0,1,1.49-4.5,4.94,4.94,0,0,1,3.91-1.73A5.23,5.23,0,0,1,997.29,433.43ZM998,438a5.13,5.13,0,0,0-.54-2,2.78,2.78,0,0,0-2.63-1.39,2.92,2.92,0,0,0-2.22,1,3.69,3.69,0,0,0-1,2.44Z" style="fill:#666"/><path d="M1008.59,437.66a1,1,0,0,0,.89-.56,1.78,1.78,0,0,0,.13-.74,1.58,1.58,0,0,0-.71-1.44,3.69,3.69,0,0,0-2-.45,2.54,2.54,0,0,0-2.14.82,2.64,2.64,0,0,0-.46,1.35h-1.81a3.36,3.36,0,0,1,1.38-3,5.72,5.72,0,0,1,3.08-.83,6.28,6.28,0,0,1,3.29.77,2.63,2.63,0,0,1,1.26,2.41v6.63a.85.85,0,0,0,.12.48c.08.12.25.18.52.18h.29l.34-.05v1.43a6.57,6.57,0,0,1-.68.16,5.55,5.55,0,0,1-.65,0,1.6,1.6,0,0,1-1.45-.71,2.6,2.6,0,0,1-.33-1.06,5,5,0,0,1-1.7,1.34,5.25,5.25,0,0,1-2.44.57,3.65,3.65,0,0,1-2.61-1,3.22,3.22,0,0,1-1-2.43,3.15,3.15,0,0,1,1-2.48,4.7,4.7,0,0,1,2.62-1.08Zm-4.08,5.22a2.3,2.3,0,0,0,1.45.48,4.37,4.37,0,0,0,2-.47,2.65,2.65,0,0,0,1.61-2.56v-1.55a3.24,3.24,0,0,1-.91.37,9.15,9.15,0,0,1-1.09.22l-1.17.15a4.44,4.44,0,0,0-1.58.44,1.7,1.7,0,0,0-.9,1.6A1.61,1.61,0,0,0,1004.51,442.88Z" style="fill:#666"/><path d="M1021,433.47a5.19,5.19,0,0,1,1.16,1.13v-5.81H1024v15.83h-1.74V443a4.23,4.23,0,0,1-1.59,1.54,4.65,4.65,0,0,1-2.11.47,4.25,4.25,0,0,1-3.32-1.62,6.34,6.34,0,0,1-1.4-4.3,7.42,7.42,0,0,1,1.28-4.36,4.19,4.19,0,0,1,3.65-1.84A4.12,4.12,0,0,1,1021,433.47Zm-4.32,8.63a2.72,2.72,0,0,0,2.5,1.24,2.64,2.64,0,0,0,2.2-1.15,5.52,5.52,0,0,0,.86-3.32,4.89,4.89,0,0,0-.89-3.22,2.75,2.75,0,0,0-2.19-1,2.88,2.88,0,0,0-2.36,1.12,5.13,5.13,0,0,0-.9,3.28A5.73,5.73,0,0,0,1016.66,442.1Z" style="fill:#666"/><path d="M1034.08,433.12h2.14q-.4,1.11-1.82,5.05-1.05,3-1.76,4.83a31.62,31.62,0,0,1-2.36,5.37,2.68,2.68,0,0,1-2.36,1,5.06,5.06,0,0,1-.63,0l-.54-.12v-1.76a7.17,7.17,0,0,0,.73.17l.4,0a1.34,1.34,0,0,0,.78-.18,1.76,1.76,0,0,0,.43-.43c0-.06.16-.35.38-.88s.39-.92.49-1.18l-4.26-11.84h2.19l3.09,9.37Z" style="fill:#666"/><path d="M1144.14,428.84h7.18a7.06,7.06,0,0,1,2.92.53,3.73,3.73,0,0,1,2.18,3.73,4.22,4.22,0,0,1-.58,2.32,4.3,4.3,0,0,1-1.64,1.45,3.3,3.3,0,0,1,1.39,1,3.6,3.6,0,0,1,.52,2l.08,2.12a6.28,6.28,0,0,0,.15,1.34,1.34,1.34,0,0,0,.68,1v.35h-2.62a1.86,1.86,0,0,1-.17-.52,11,11,0,0,1-.11-1.25l-.13-2.63a2.23,2.23,0,0,0-1.11-2.08,4.57,4.57,0,0,0-1.87-.29h-4.73v6.77h-2.14Zm6.95,7.23a4,4,0,0,0,2.31-.6,2.47,2.47,0,0,0,.85-2.17,2.34,2.34,0,0,0-1.19-2.3,3.84,3.84,0,0,0-1.7-.32h-5.08v5.39Z" style="fill:#666"/><path d="M1165.68,437.66a1,1,0,0,0,.89-.56,1.64,1.64,0,0,0,.13-.74,1.58,1.58,0,0,0-.7-1.44,3.74,3.74,0,0,0-2-.45,2.52,2.52,0,0,0-2.14.82,2.64,2.64,0,0,0-.46,1.35h-1.81a3.36,3.36,0,0,1,1.38-3,5.69,5.69,0,0,1,3.07-.83,6.32,6.32,0,0,1,3.3.77,2.64,2.64,0,0,1,1.25,2.41v6.63a.78.78,0,0,0,.13.48c.08.12.25.18.52.18h.29l.34-.05v1.43a6.08,6.08,0,0,1-.69.16,5.25,5.25,0,0,1-.64,0,1.59,1.59,0,0,1-1.45-.71,2.6,2.6,0,0,1-.33-1.06,5,5,0,0,1-1.7,1.34,5.25,5.25,0,0,1-2.44.57,3.67,3.67,0,0,1-2.62-1,3.25,3.25,0,0,1-1-2.43,3.12,3.12,0,0,1,1-2.48,4.67,4.67,0,0,1,2.62-1.08Zm-4.07,5.22a2.28,2.28,0,0,0,1.45.48,4.37,4.37,0,0,0,2-.47,2.65,2.65,0,0,0,1.61-2.56v-1.55a3.37,3.37,0,0,1-.91.37,8.92,8.92,0,0,1-1.1.22l-1.16.15a4.44,4.44,0,0,0-1.58.44,1.7,1.7,0,0,0-.9,1.6A1.58,1.58,0,0,0,1161.61,442.88Z" style="fill:#666"/><path d="M1171.75,433.12h1.84v1.63a5.1,5.1,0,0,1,1.73-1.45,4.65,4.65,0,0,1,2-.44,3.36,3.36,0,0,1,3.31,1.71,6.11,6.11,0,0,1,.47,2.67v7.38h-2v-7.25a3.91,3.91,0,0,0-.31-1.7,1.89,1.89,0,0,0-1.87-1.07,3.83,3.83,0,0,0-1.12.14,2.89,2.89,0,0,0-1.4.94,3,3,0,0,0-.63,1.18,7.81,7.81,0,0,0-.14,1.74v6h-1.94Z" style="fill:#666"/><path d="M1183.94,428.84h1.86V438l5-4.88h2.47l-4.42,4.27,4.67,7.23H1191l-3.62-5.85-1.59,1.53v4.32h-1.86Z" style="fill:#666"/><path d="M1214.36,431.1a8.72,8.72,0,0,1,1.56,5.36,9.35,9.35,0,0,1-1.79,5.87,7.1,7.1,0,0,1-6,2.75,7.19,7.19,0,0,1-5.72-2.4,9.09,9.09,0,0,1-1.86-5.87,9.35,9.35,0,0,1,1.59-5.48,6.9,6.9,0,0,1,6-2.92C1211,428.41,1213,429.31,1214.36,431.1Zm-1.89,10.06a8.69,8.69,0,0,0,1.26-4.67,6.65,6.65,0,0,0-1.45-4.48,5,5,0,0,0-4-1.7,5.15,5.15,0,0,0-4,1.69,7.09,7.09,0,0,0-1.55,5,7.27,7.27,0,0,0,1.33,4.42,5,5,0,0,0,4.3,1.8A4.44,4.44,0,0,0,1212.47,441.16Z" style="fill:#666"/><path d="M1218.27,433.12h1.83v2a4.49,4.49,0,0,1,1.11-1.41,2.89,2.89,0,0,1,2-.83h.18l.44,0v2l-.31,0h-.32a2.76,2.76,0,0,0-2.25.94,3.3,3.3,0,0,0-.78,2.16v6.62h-1.93Z" style="fill:#666"/><path d="M1231.86,433.47a5.42,5.42,0,0,1,1.17,1.13v-5.81h1.85v15.83h-1.74V443a4.23,4.23,0,0,1-1.59,1.54,4.62,4.62,0,0,1-2.11.47,4.27,4.27,0,0,1-3.32-1.62,6.34,6.34,0,0,1-1.4-4.3,7.5,7.5,0,0,1,1.28-4.36,4.19,4.19,0,0,1,3.65-1.84A4.1,4.1,0,0,1,1231.86,433.47Zm-4.32,8.63a2.73,2.73,0,0,0,2.5,1.24,2.63,2.63,0,0,0,2.2-1.15,5.52,5.52,0,0,0,.86-3.32,4.89,4.89,0,0,0-.89-3.22,2.75,2.75,0,0,0-2.19-1,2.86,2.86,0,0,0-2.35,1.12,5.07,5.07,0,0,0-.91,3.28A5.73,5.73,0,0,0,1227.54,442.1Z" style="fill:#666"/><path d="M1244.88,433.43a4.43,4.43,0,0,1,1.74,1.49,5.27,5.27,0,0,1,.77,2,13.78,13.78,0,0,1,.17,2.54h-8.37a5,5,0,0,0,.82,2.81,2.74,2.74,0,0,0,2.38,1.06,3.06,3.06,0,0,0,2.4-1,3.5,3.5,0,0,0,.71-1.35h1.9a3.94,3.94,0,0,1-.5,1.41,5,5,0,0,1-1,1.28,4.45,4.45,0,0,1-2.16,1.16,6.8,6.8,0,0,1-1.57.17,4.81,4.81,0,0,1-3.62-1.56,6.11,6.11,0,0,1-1.48-4.38,6.66,6.66,0,0,1,1.49-4.5,4.94,4.94,0,0,1,3.91-1.73A5.23,5.23,0,0,1,1244.88,433.43Zm.69,4.52a5.13,5.13,0,0,0-.54-2,2.78,2.78,0,0,0-2.63-1.39,2.92,2.92,0,0,0-2.22,1,3.69,3.69,0,0,0-1,2.44Z" style="fill:#666"/><path d="M1250.06,433.12h1.84v2a4.49,4.49,0,0,1,1.11-1.41,2.87,2.87,0,0,1,2-.83h.18l.44,0v2l-.32,0H1255a2.75,2.75,0,0,0-2.25.94A3.3,3.3,0,0,0,1252,438v6.62h-1.94Z" style="fill:#666"/><rect x="61.82" y="420.42" width="29.77" height="29.77" rx="3" style="fill:#fff;stroke:#e2e2e2;stroke-miterlimit:10;stroke-width:3px"/><path d="M361.11,534.57h2.09v7.73l7.89-7.73h3l-6.74,6.37,6.88,9.41h-2.8l-5.65-7.93-2.57,2.43v5.5h-2.09Z" style="fill:#666"/><path d="M381.7,543.39a1,1,0,0,0,.89-.56,1.78,1.78,0,0,0,.13-.74,1.58,1.58,0,0,0-.71-1.44,3.69,3.69,0,0,0-2-.45,2.56,2.56,0,0,0-2.14.82,2.71,2.71,0,0,0-.46,1.35h-1.81a3.36,3.36,0,0,1,1.38-3,5.72,5.72,0,0,1,3.08-.83,6.28,6.28,0,0,1,3.29.77,2.63,2.63,0,0,1,1.26,2.41v6.63a.85.85,0,0,0,.12.48.6.6,0,0,0,.52.18h.29l.34,0v1.43a6.57,6.57,0,0,1-.68.16,5.55,5.55,0,0,1-.65,0,1.6,1.6,0,0,1-1.45-.71,2.6,2.6,0,0,1-.33-1.06,4.94,4.94,0,0,1-1.7,1.34,5.25,5.25,0,0,1-2.44.57,3.6,3.6,0,0,1-2.61-1,3.22,3.22,0,0,1-1-2.43,3.15,3.15,0,0,1,1-2.48,4.77,4.77,0,0,1,2.62-1.08Zm-4.08,5.22a2.25,2.25,0,0,0,1.45.49,4.47,4.47,0,0,0,2-.47,2.66,2.66,0,0,0,1.61-2.57v-1.55a3.24,3.24,0,0,1-.91.37,6.2,6.2,0,0,1-1.09.22l-1.17.15a4.44,4.44,0,0,0-1.58.44,1.71,1.71,0,0,0-.9,1.61A1.6,1.6,0,0,0,377.62,548.61Z" style="fill:#666"/><path d="M387.82,538.85h1.84v2a4.34,4.34,0,0,1,1.1-1.42,2.9,2.9,0,0,1,2-.83H393l.44,0v2a2.09,2.09,0,0,0-.32-.05h-.32a2.77,2.77,0,0,0-2.24.94,3.26,3.26,0,0,0-.79,2.17v6.61h-1.93Z" style="fill:#666"/><path d="M401.26,543.39a1,1,0,0,0,.89-.56,1.64,1.64,0,0,0,.13-.74,1.6,1.6,0,0,0-.7-1.44,3.74,3.74,0,0,0-2-.45,2.57,2.57,0,0,0-2.15.82,2.82,2.82,0,0,0-.46,1.35h-1.8a3.34,3.34,0,0,1,1.37-3,5.72,5.72,0,0,1,3.08-.83,6.28,6.28,0,0,1,3.29.77,2.63,2.63,0,0,1,1.26,2.41v6.63a.85.85,0,0,0,.12.48.6.6,0,0,0,.52.18h.29l.35,0v1.43a6.08,6.08,0,0,1-.69.16,5.43,5.43,0,0,1-.65,0,1.6,1.6,0,0,1-1.45-.71,2.94,2.94,0,0,1-.33-1.06,4.94,4.94,0,0,1-1.7,1.34,5.21,5.21,0,0,1-2.43.57,3.63,3.63,0,0,1-2.62-1,3.22,3.22,0,0,1-1-2.43,3.15,3.15,0,0,1,1-2.48,4.77,4.77,0,0,1,2.62-1.08Zm-4.07,5.22a2.21,2.21,0,0,0,1.45.49,4.42,4.42,0,0,0,2-.47,2.66,2.66,0,0,0,1.61-2.57v-1.55a3.24,3.24,0,0,1-.91.37,6.2,6.2,0,0,1-1.09.22l-1.17.15a4.44,4.44,0,0,0-1.58.44,1.71,1.71,0,0,0-.9,1.61A1.58,1.58,0,0,0,397.19,548.61Z" style="fill:#666"/><path d="M407.71,535.64h2v3.21h1.84v1.58h-1.84v7.51a.79.79,0,0,0,.41.8,1.7,1.7,0,0,0,.75.12h.3l.38,0v1.53a3.34,3.34,0,0,1-.7.14,6.26,6.26,0,0,1-.78,0,2.07,2.07,0,0,1-1.83-.7,3,3,0,0,1-.49-1.8v-7.61h-1.55v-1.58h1.55Z" style="fill:#666"/><path d="M420.55,539.17a4.41,4.41,0,0,1,1.74,1.48,5.1,5.1,0,0,1,.76,2,12.75,12.75,0,0,1,.18,2.54h-8.37a5,5,0,0,0,.82,2.82,2.74,2.74,0,0,0,2.37,1.06,3,3,0,0,0,2.4-1,3.25,3.25,0,0,0,.71-1.35h1.9a3.86,3.86,0,0,1-.5,1.42,4.93,4.93,0,0,1-.94,1.27,4.53,4.53,0,0,1-2.17,1.16,6.71,6.71,0,0,1-1.56.17,4.8,4.8,0,0,1-3.62-1.56,6.1,6.1,0,0,1-1.49-4.38,6.61,6.61,0,0,1,1.5-4.5,4.94,4.94,0,0,1,3.91-1.73A5.14,5.14,0,0,1,420.55,539.17Zm.69,4.51a5.06,5.06,0,0,0-.55-2,2.77,2.77,0,0,0-2.63-1.39,2.89,2.89,0,0,0-2.21,1,3.66,3.66,0,0,0-1,2.44Z" style="fill:#666"/><path d="M439.8,545.65a6.7,6.7,0,0,1-.59,3.1q-1.09,2-4.17,2a4.86,4.86,0,0,1-3-1,4.06,4.06,0,0,1-1.26-3.42v-1.13h2v1.13a2.86,2.86,0,0,0,.58,1.94,2.28,2.28,0,0,0,1.79.65,2.2,2.2,0,0,0,2.24-1.17,7.54,7.54,0,0,0,.32-2.72V534.57h2.12Z" style="fill:#666"/><path d="M444.72,538.85v7.64a3.36,3.36,0,0,0,.27,1.44,1.9,1.9,0,0,0,1.87,1,2.64,2.64,0,0,0,2.68-1.81,7.26,7.26,0,0,0,.39-2.65v-5.65h1.93v11.5H450l0-1.69a3.94,3.94,0,0,1-.92,1.1,4,4,0,0,1-2.63.91,3.38,3.38,0,0,1-3.29-1.65,4.9,4.9,0,0,1-.48-2.35v-7.82Z" style="fill:#666"/><path d="M455,538.85h1.84v1.63a5.21,5.21,0,0,1,1.73-1.45,4.65,4.65,0,0,1,2-.44,3.36,3.36,0,0,1,3.31,1.71,6.11,6.11,0,0,1,.47,2.67v7.38h-2V543.1a3.87,3.87,0,0,0-.31-1.69,1.88,1.88,0,0,0-1.87-1.08,3.87,3.87,0,0,0-1.12.14,2.89,2.89,0,0,0-1.4.95,2.93,2.93,0,0,0-.63,1.17,7.86,7.86,0,0,0-.14,1.74v6H455Z" style="fill:#666"/><path d="M467.26,534.57h2v2.2h-2Zm0,4.33h2v11.45h-2Z" style="fill:#666"/><path d="M480.48,540a5.8,5.8,0,0,1,1.53,4.36,7.48,7.48,0,0,1-1.35,4.59,4.83,4.83,0,0,1-4.17,1.81,4.68,4.68,0,0,1-3.74-1.6,6.34,6.34,0,0,1-1.39-4.31,6.93,6.93,0,0,1,1.46-4.62,4.92,4.92,0,0,1,3.93-1.71A5.15,5.15,0,0,1,480.48,540Zm-1.2,7.64a7.29,7.29,0,0,0,.71-3.23,5.82,5.82,0,0,0-.51-2.62,2.87,2.87,0,0,0-2.79-1.59,2.76,2.76,0,0,0-2.55,1.35,6.36,6.36,0,0,0-.79,3.27,5.47,5.47,0,0,0,.79,3,2.81,2.81,0,0,0,2.53,1.23A2.64,2.64,0,0,0,479.28,547.64Z" style="fill:#666"/><path d="M484.43,538.85h1.84v2a4.4,4.4,0,0,1,1.11-1.42,2.87,2.87,0,0,1,2-.83h.18l.44,0v2a1.92,1.92,0,0,0-.32-.05h-.31a2.78,2.78,0,0,0-2.25.94,3.31,3.31,0,0,0-.78,2.17v6.61h-1.94Z" style="fill:#666"/><path d="M508.58,535a5.59,5.59,0,0,1,2.84,4.32H509.3a3.86,3.86,0,0,0-1.56-2.52,5.4,5.4,0,0,0-3-.78,4.66,4.66,0,0,0-3.62,1.64,7.19,7.19,0,0,0-1.46,4.9,7.94,7.94,0,0,0,1.21,4.58,4.42,4.42,0,0,0,3.94,1.77,5,5,0,0,0,3.47-1.24,5.26,5.26,0,0,0,1.41-4h-4.94v-1.77h6.93v8.44H510.3l-.51-2a8.15,8.15,0,0,1-1.9,1.66,7,7,0,0,1-3.51.79,6.81,6.81,0,0,1-4.75-1.81,8.72,8.72,0,0,1-2.17-6.25,9.05,9.05,0,0,1,2.12-6.31,6.68,6.68,0,0,1,5.21-2.23A7.8,7.8,0,0,1,508.58,535Z" style="fill:#666"/><path d="M515,538.85h1.83v2a4.4,4.4,0,0,1,1.11-1.42,2.89,2.89,0,0,1,2-.83h.18l.44,0v2a1.92,1.92,0,0,0-.32-.05H520a2.79,2.79,0,0,0-2.25.94,3.31,3.31,0,0,0-.78,2.17v6.61H515Z" style="fill:#666"/><path d="M529.36,539.17a4.27,4.27,0,0,1,1.74,1.48,5.11,5.11,0,0,1,.77,2,12.94,12.94,0,0,1,.17,2.54h-8.36a4.88,4.88,0,0,0,.82,2.82,2.74,2.74,0,0,0,2.37,1.06,3.07,3.07,0,0,0,2.4-1,3.25,3.25,0,0,0,.71-1.35h1.9a3.86,3.86,0,0,1-.5,1.42,5.17,5.17,0,0,1-.94,1.27,4.53,4.53,0,0,1-2.17,1.16,6.74,6.74,0,0,1-1.57.17,4.79,4.79,0,0,1-3.61-1.56,6.1,6.1,0,0,1-1.49-4.38,6.61,6.61,0,0,1,1.5-4.5,4.91,4.91,0,0,1,3.9-1.73A5.08,5.08,0,0,1,529.36,539.17Zm.7,4.51a5.06,5.06,0,0,0-.55-2,2.77,2.77,0,0,0-2.63-1.39,2.89,2.89,0,0,0-2.21,1,3.61,3.61,0,0,0-.95,2.44Z" style="fill:#666"/><path d="M541.6,539.17a4.41,4.41,0,0,1,1.74,1.48,5.27,5.27,0,0,1,.77,2,13.78,13.78,0,0,1,.17,2.54h-8.37a5,5,0,0,0,.82,2.82,2.76,2.76,0,0,0,2.38,1.06,3.07,3.07,0,0,0,2.4-1,3.37,3.37,0,0,0,.71-1.35h1.9a4,4,0,0,1-.5,1.42,5,5,0,0,1-1,1.27,4.45,4.45,0,0,1-2.16,1.16,6.8,6.8,0,0,1-1.57.17,4.81,4.81,0,0,1-3.62-1.56,6.1,6.1,0,0,1-1.48-4.38,6.66,6.66,0,0,1,1.49-4.5,4.94,4.94,0,0,1,3.91-1.73A5.11,5.11,0,0,1,541.6,539.17Zm.69,4.51a5.24,5.24,0,0,0-.54-2,2.78,2.78,0,0,0-2.63-1.39,2.92,2.92,0,0,0-2.22,1,3.71,3.71,0,0,0-.95,2.44Z" style="fill:#666"/><path d="M546.73,538.85h1.84v1.63a5.29,5.29,0,0,1,1.72-1.45,4.68,4.68,0,0,1,2-.44,3.34,3.34,0,0,1,3.31,1.71,6,6,0,0,1,.48,2.67v7.38h-2V543.1a3.87,3.87,0,0,0-.31-1.69,1.89,1.89,0,0,0-1.87-1.08,4,4,0,0,0-1.13.14,2.86,2.86,0,0,0-1.39.95,2.7,2.7,0,0,0-.63,1.17,7.76,7.76,0,0,0-.15,1.74v6h-1.93Z" style="fill:#666"/><path d="M682.07,539.46V538a7.9,7.9,0,0,0,2.92-.68,3.42,3.42,0,0,0,1.24-2.26h1.52v15.31h-2.06V539.46Z" style="fill:#666"/><path d="M693.71,546.9a6.52,6.52,0,0,1,2.79-2.68l2.06-1.19a9.77,9.77,0,0,0,1.94-1.38,2.81,2.81,0,0,0,.88-2,2.85,2.85,0,0,0-.8-2.14,2.94,2.94,0,0,0-2.15-.79,2.8,2.8,0,0,0-2.75,1.51,5.45,5.45,0,0,0-.45,2.24h-2a7,7,0,0,1,.74-3.28q1.26-2.24,4.44-2.23a4.57,4.57,0,0,1,5.08,4.61,4.29,4.29,0,0,1-1.3,3.15,12.59,12.59,0,0,1-2.69,1.85l-1.48.82a9.77,9.77,0,0,0-1.65,1.1,4,4,0,0,0-1.35,2.08h8.4v1.82H692.89A8.85,8.85,0,0,1,693.71,546.9Z" style="fill:#666"/><path d="M714.7,537.43a11,11,0,0,1,1,5.21,12.61,12.61,0,0,1-.94,5.19,4.57,4.57,0,0,1-4.42,2.94,4.44,4.44,0,0,1-4.13-2.4,11.06,11.06,0,0,1-1.13-5.4,13.4,13.4,0,0,1,.68-4.5q1.26-3.5,4.59-3.5A4.53,4.53,0,0,1,714.7,537.43Zm-1.94,10.25c.59-.89.89-2.54.89-5a12.3,12.3,0,0,0-.64-4.32,2.47,2.47,0,0,0-2.51-1.69,2.62,2.62,0,0,0-2.5,1.61,11,11,0,0,0-.79,4.73,11.52,11.52,0,0,0,.5,3.78,2.75,2.75,0,0,0,5,.85Z" style="fill:#666"/><path d="M923,546.9a6.52,6.52,0,0,1,2.79-2.68l2.06-1.19a9.77,9.77,0,0,0,1.94-1.38,2.81,2.81,0,0,0,.88-2,2.89,2.89,0,0,0-.8-2.14,2.94,2.94,0,0,0-2.15-.79,2.8,2.8,0,0,0-2.75,1.51,5.45,5.45,0,0,0-.45,2.24h-2a7,7,0,0,1,.74-3.28q1.26-2.24,4.44-2.23a4.57,4.57,0,0,1,5.08,4.61,4.29,4.29,0,0,1-1.3,3.15,12.45,12.45,0,0,1-2.7,1.85l-1.47.82a9.77,9.77,0,0,0-1.65,1.1,4,4,0,0,0-1.35,2.08h8.4v1.82H922.19A8.85,8.85,0,0,1,923,546.9Z" style="fill:#666"/><path d="M941,550.35v-3.76h-6.75V544.7l7.05-9.77H943v10h2.27v1.68H943v3.76Zm0-5.44v-7l-4.93,7Z" style="fill:#666"/><path d="M1195.05,539.46V538a7.9,7.9,0,0,0,2.92-.68,3.38,3.38,0,0,0,1.24-2.26h1.52v15.31h-2.06V539.46Z" style="fill:#666"/><rect x="61.82" y="526.16" width="29.77" height="29.77" rx="3" style="fill:#fff;stroke:#e2e2e2;stroke-miterlimit:10;stroke-width:3px"/><path d="M361.11,649.33h2.09v7.73l7.89-7.73h3l-6.74,6.37,6.88,9.41h-2.8l-5.65-7.93-2.57,2.43v5.5h-2.09Z" style="fill:#666"/><path d="M381.7,658.15a1,1,0,0,0,.89-.56,1.78,1.78,0,0,0,.13-.74,1.58,1.58,0,0,0-.71-1.44,3.69,3.69,0,0,0-2-.45,2.56,2.56,0,0,0-2.14.82,2.68,2.68,0,0,0-.46,1.35h-1.81a3.36,3.36,0,0,1,1.38-3,5.72,5.72,0,0,1,3.08-.83,6.28,6.28,0,0,1,3.29.77,2.63,2.63,0,0,1,1.26,2.41v6.63a.85.85,0,0,0,.12.48.6.6,0,0,0,.52.18h.29l.34,0v1.43a6.57,6.57,0,0,1-.68.16,5.55,5.55,0,0,1-.65,0,1.6,1.6,0,0,1-1.45-.71,2.6,2.6,0,0,1-.33-1.06,4.94,4.94,0,0,1-1.7,1.34,5.25,5.25,0,0,1-2.44.57,3.6,3.6,0,0,1-2.61-1,3.22,3.22,0,0,1-1-2.43,3.15,3.15,0,0,1,1-2.48,4.7,4.7,0,0,1,2.62-1.08Zm-4.08,5.22a2.25,2.25,0,0,0,1.45.49,4.47,4.47,0,0,0,2-.47,2.66,2.66,0,0,0,1.61-2.57v-1.55a3.24,3.24,0,0,1-.91.37,7.26,7.26,0,0,1-1.09.22l-1.17.15a4.44,4.44,0,0,0-1.58.44,1.7,1.7,0,0,0-.9,1.61A1.6,1.6,0,0,0,377.62,663.37Z" style="fill:#666"/><path d="M387.82,653.61h1.84v2a4.34,4.34,0,0,1,1.1-1.42,2.9,2.9,0,0,1,2-.83H393l.44,0v2.05a2.09,2.09,0,0,0-.32-.05h-.32a2.77,2.77,0,0,0-2.24.94,3.26,3.26,0,0,0-.79,2.17v6.61h-1.93Z" style="fill:#666"/><path d="M401.26,658.15a1,1,0,0,0,.89-.56,1.64,1.64,0,0,0,.13-.74,1.6,1.6,0,0,0-.7-1.44,3.74,3.74,0,0,0-2-.45,2.57,2.57,0,0,0-2.15.82,2.78,2.78,0,0,0-.46,1.35h-1.8a3.34,3.34,0,0,1,1.37-3,5.72,5.72,0,0,1,3.08-.83,6.28,6.28,0,0,1,3.29.77,2.63,2.63,0,0,1,1.26,2.41v6.63a.85.85,0,0,0,.12.48.6.6,0,0,0,.52.18h.29l.35,0v1.43a6.08,6.08,0,0,1-.69.16,5.43,5.43,0,0,1-.65,0,1.6,1.6,0,0,1-1.45-.71,2.94,2.94,0,0,1-.33-1.06,4.94,4.94,0,0,1-1.7,1.34,5.21,5.21,0,0,1-2.43.57,3.63,3.63,0,0,1-2.62-1,3.22,3.22,0,0,1-1-2.43,3.15,3.15,0,0,1,1-2.48,4.7,4.7,0,0,1,2.62-1.08Zm-4.07,5.22a2.21,2.21,0,0,0,1.45.49,4.42,4.42,0,0,0,2-.47,2.66,2.66,0,0,0,1.61-2.57v-1.55a3.24,3.24,0,0,1-.91.37,7.26,7.26,0,0,1-1.09.22l-1.17.15a4.44,4.44,0,0,0-1.58.44,1.7,1.7,0,0,0-.9,1.61A1.58,1.58,0,0,0,397.19,663.37Z" style="fill:#666"/><path d="M407.71,650.4h2v3.21h1.84v1.58h-1.84v7.51a.79.79,0,0,0,.41.8,1.7,1.7,0,0,0,.75.12h.3l.38,0v1.53a3.34,3.34,0,0,1-.7.14,6.26,6.26,0,0,1-.78,0,2.07,2.07,0,0,1-1.83-.7,3,3,0,0,1-.49-1.8v-7.61h-1.55v-1.58h1.55Z" style="fill:#666"/><path d="M420.55,653.93a4.41,4.41,0,0,1,1.74,1.48,5.1,5.1,0,0,1,.76,2,12.75,12.75,0,0,1,.18,2.54h-8.37a5,5,0,0,0,.82,2.82,2.74,2.74,0,0,0,2.37,1.06,3,3,0,0,0,2.4-1,3.25,3.25,0,0,0,.71-1.35h1.9a3.86,3.86,0,0,1-.5,1.42,4.93,4.93,0,0,1-.94,1.27,4.53,4.53,0,0,1-2.17,1.16,6.71,6.71,0,0,1-1.56.17,4.8,4.8,0,0,1-3.62-1.56,6.1,6.1,0,0,1-1.49-4.38,6.61,6.61,0,0,1,1.5-4.5,4.94,4.94,0,0,1,3.91-1.73A5.14,5.14,0,0,1,420.55,653.93Zm.69,4.51a5.06,5.06,0,0,0-.55-2,2.77,2.77,0,0,0-2.63-1.39,2.89,2.89,0,0,0-2.21,1,3.64,3.64,0,0,0-1,2.44Z" style="fill:#666"/><path d="M439.8,660.41a6.7,6.7,0,0,1-.59,3.1q-1.09,2-4.17,2a4.86,4.86,0,0,1-3-1,4.06,4.06,0,0,1-1.26-3.42V660h2v1.13a2.86,2.86,0,0,0,.58,1.94,2.28,2.28,0,0,0,1.79.65,2.2,2.2,0,0,0,2.24-1.17,7.54,7.54,0,0,0,.32-2.72V649.33h2.12Z" style="fill:#666"/><path d="M444.72,653.61v7.64a3.36,3.36,0,0,0,.27,1.44,1.9,1.9,0,0,0,1.87,1,2.64,2.64,0,0,0,2.68-1.81,7.26,7.26,0,0,0,.39-2.65v-5.65h1.93v11.5H450l0-1.69a3.94,3.94,0,0,1-.92,1.1,4,4,0,0,1-2.63.91,3.38,3.38,0,0,1-3.29-1.65,4.9,4.9,0,0,1-.48-2.35v-7.82Z" style="fill:#666"/><path d="M455,653.61h1.84v1.63a5.21,5.21,0,0,1,1.73-1.45,4.65,4.65,0,0,1,2-.44,3.36,3.36,0,0,1,3.31,1.71,6.11,6.11,0,0,1,.47,2.67v7.38h-2v-7.25a3.87,3.87,0,0,0-.31-1.69,1.88,1.88,0,0,0-1.87-1.08,3.87,3.87,0,0,0-1.12.14,2.89,2.89,0,0,0-1.4.95,2.93,2.93,0,0,0-.63,1.17,7.86,7.86,0,0,0-.14,1.74v6H455Z" style="fill:#666"/><path d="M467.26,649.33h2v2.2h-2Zm0,4.33h2v11.45h-2Z" style="fill:#666"/><path d="M480.48,654.76a5.78,5.78,0,0,1,1.53,4.35,7.49,7.49,0,0,1-1.35,4.6,4.83,4.83,0,0,1-4.17,1.81,4.68,4.68,0,0,1-3.74-1.6,6.34,6.34,0,0,1-1.39-4.31,6.93,6.93,0,0,1,1.46-4.62,4.92,4.92,0,0,1,3.93-1.71A5.15,5.15,0,0,1,480.48,654.76Zm-1.2,7.64a7.29,7.29,0,0,0,.71-3.23,5.82,5.82,0,0,0-.51-2.62,2.87,2.87,0,0,0-2.79-1.59,2.76,2.76,0,0,0-2.55,1.35,6.36,6.36,0,0,0-.79,3.27,5.47,5.47,0,0,0,.79,3,2.81,2.81,0,0,0,2.53,1.23A2.64,2.64,0,0,0,479.28,662.4Z" style="fill:#666"/><path d="M484.43,653.61h1.84v2a4.4,4.4,0,0,1,1.11-1.42,2.87,2.87,0,0,1,2-.83h.18l.44,0v2.05a1.92,1.92,0,0,0-.32-.05h-.31a2.78,2.78,0,0,0-2.25.94,3.31,3.31,0,0,0-.78,2.17v6.61h-1.94Z" style="fill:#666"/><path d="M511.07,651.59a8.68,8.68,0,0,1,1.57,5.36,9.38,9.38,0,0,1-1.79,5.88,8,8,0,0,1-11.73.34,9.09,9.09,0,0,1-1.86-5.87,9.29,9.29,0,0,1,1.59-5.47,6.89,6.89,0,0,1,6-2.93C507.67,648.9,509.74,649.8,511.07,651.59Zm-1.88,10.06a8.65,8.65,0,0,0,1.26-4.66A6.68,6.68,0,0,0,509,652.5a5,5,0,0,0-4-1.69,5.18,5.18,0,0,0-4,1.68,7.09,7.09,0,0,0-1.55,5,7.27,7.27,0,0,0,1.33,4.42,5,5,0,0,0,4.3,1.8A4.44,4.44,0,0,0,509.19,661.65Z" style="fill:#666"/><path d="M515,653.61h1.83v2a4.4,4.4,0,0,1,1.11-1.42,2.89,2.89,0,0,1,2-.83h.18l.44,0v2.05a1.92,1.92,0,0,0-.32-.05H520a2.79,2.79,0,0,0-2.25.94,3.31,3.31,0,0,0-.78,2.17v6.61H515Z" style="fill:#666"/><path d="M528.42,658.15a1.07,1.07,0,0,0,.9-.56,1.81,1.81,0,0,0,.12-.74,1.58,1.58,0,0,0-.7-1.44,3.74,3.74,0,0,0-2-.45,2.55,2.55,0,0,0-2.14.82,2.68,2.68,0,0,0-.46,1.35h-1.81a3.36,3.36,0,0,1,1.38-3,5.69,5.69,0,0,1,3.07-.83,6.32,6.32,0,0,1,3.3.77,2.62,2.62,0,0,1,1.25,2.41v6.63a.78.78,0,0,0,.13.48c.08.12.25.18.52.18h.29l.34,0v1.43a6.08,6.08,0,0,1-.69.16,5.25,5.25,0,0,1-.64,0,1.59,1.59,0,0,1-1.45-.71,2.6,2.6,0,0,1-.33-1.06,5,5,0,0,1-1.7,1.34,5.25,5.25,0,0,1-2.44.57,3.59,3.59,0,0,1-2.61-1,3.22,3.22,0,0,1-1-2.43,3.12,3.12,0,0,1,1-2.48,4.7,4.7,0,0,1,2.62-1.08Zm-4.07,5.22a2.23,2.23,0,0,0,1.45.49,4.5,4.5,0,0,0,2-.47,2.67,2.67,0,0,0,1.61-2.57v-1.55a3.37,3.37,0,0,1-.91.37,7.52,7.52,0,0,1-1.09.22l-1.17.15a4.44,4.44,0,0,0-1.58.44,1.7,1.7,0,0,0-.9,1.61A1.57,1.57,0,0,0,524.35,663.37Z" style="fill:#666"/><path d="M534.49,653.61h1.84v1.63a5.21,5.21,0,0,1,1.73-1.45,4.65,4.65,0,0,1,2-.44,3.36,3.36,0,0,1,3.31,1.71,6.11,6.11,0,0,1,.47,2.67v7.38h-2v-7.25a3.87,3.87,0,0,0-.31-1.69,1.88,1.88,0,0,0-1.87-1.08,3.87,3.87,0,0,0-1.12.14,2.89,2.89,0,0,0-1.4.95,2.93,2.93,0,0,0-.63,1.17,7.86,7.86,0,0,0-.14,1.74v6h-1.94Z" style="fill:#666"/><path d="M553.12,654.07a5.23,5.23,0,0,1,1.12,1.1v-1.45H556v10.46a7.74,7.74,0,0,1-.64,3.46q-1.2,2.34-4.53,2.34a5.6,5.6,0,0,1-3.12-.83,3.27,3.27,0,0,1-1.41-2.61h2a2.17,2.17,0,0,0,.55,1.2,2.88,2.88,0,0,0,2,.64,2.82,2.82,0,0,0,2.9-1.57,8.91,8.91,0,0,0,.37-3.3,3.68,3.68,0,0,1-1.39,1.31,5,5,0,0,1-5.41-.89c-.93-.89-1.39-2.35-1.39-4.39a6.64,6.64,0,0,1,1.4-4.51,4.36,4.36,0,0,1,3.4-1.63A4.18,4.18,0,0,1,553.12,654.07Zm.24,2.07a2.82,2.82,0,0,0-2.23-1,2.76,2.76,0,0,0-2.78,1.92,7.36,7.36,0,0,0-.4,2.67,4.73,4.73,0,0,0,.79,3,2.52,2.52,0,0,0,2.11,1,3,3,0,0,0,2.92-1.88,6.1,6.1,0,0,0,.47-2.48A4.8,4.8,0,0,0,553.36,656.14Z" style="fill:#666"/><path d="M566.07,653.93a4.41,4.41,0,0,1,1.74,1.48,5.27,5.27,0,0,1,.77,2,13.78,13.78,0,0,1,.17,2.54h-8.37a5,5,0,0,0,.82,2.82,2.76,2.76,0,0,0,2.38,1.06,3.07,3.07,0,0,0,2.4-1,3.37,3.37,0,0,0,.71-1.35h1.9a4,4,0,0,1-.5,1.42,5,5,0,0,1-1,1.27,4.45,4.45,0,0,1-2.16,1.16,6.8,6.8,0,0,1-1.57.17,4.81,4.81,0,0,1-3.62-1.56,6.1,6.1,0,0,1-1.48-4.38,6.66,6.66,0,0,1,1.49-4.5,4.94,4.94,0,0,1,3.91-1.73A5.11,5.11,0,0,1,566.07,653.93Zm.69,4.51a5.24,5.24,0,0,0-.54-2,2.78,2.78,0,0,0-2.63-1.39,2.92,2.92,0,0,0-2.22,1,3.69,3.69,0,0,0-1,2.44Z" style="fill:#666"/><path d="M682.07,654.22v-1.48a7.9,7.9,0,0,0,2.92-.68,3.42,3.42,0,0,0,1.24-2.26h1.52v15.31h-2.06V654.22Z" style="fill:#666"/><path d="M694.92,661.19a2.68,2.68,0,0,0,1.53,2.29,3.64,3.64,0,0,0,1.59.32,3,3,0,0,0,2.55-1.09,4,4,0,0,0,.83-2.43,3.15,3.15,0,0,0-1-2.49,3.38,3.38,0,0,0-2.35-.88,3.67,3.67,0,0,0-1.72.38,3.79,3.79,0,0,0-1.22,1.08l-1.67-.1,1.17-8.28h8v1.87h-6.54l-.66,4.27a4.43,4.43,0,0,1,3-1,5.08,5.08,0,0,1,3.59,1.36A4.51,4.51,0,0,1,703.5,660a6,6,0,0,1-1.35,3.85,5.21,5.21,0,0,1-4.3,1.66,5.44,5.44,0,0,1-3.32-1.06,4.16,4.16,0,0,1-1.62-3.25Z" style="fill:#666"/><path d="M714.7,652.19a11,11,0,0,1,1,5.21,12.61,12.61,0,0,1-.94,5.19,4.57,4.57,0,0,1-4.42,2.94,4.44,4.44,0,0,1-4.13-2.4,11.06,11.06,0,0,1-1.13-5.4,13.4,13.4,0,0,1,.68-4.5q1.26-3.5,4.59-3.5A4.53,4.53,0,0,1,714.7,652.19Zm-1.94,10.25c.59-.89.89-2.54.89-5a12.3,12.3,0,0,0-.64-4.32,2.47,2.47,0,0,0-2.51-1.69,2.62,2.62,0,0,0-2.5,1.61,11,11,0,0,0-.79,4.73,11.52,11.52,0,0,0,.5,3.78,2.75,2.75,0,0,0,5,.85Z" style="fill:#666"/><path d="M928.8,665.11v-3.76h-6.74v-1.89l7-9.77h1.64v10H933v1.68h-2.26v3.76Zm0-5.44v-7l-4.93,7Z" style="fill:#666"/><path d="M944,652.19a11,11,0,0,1,1,5.21,12.62,12.62,0,0,1-.93,5.19,4.58,4.58,0,0,1-4.43,2.94,4.43,4.43,0,0,1-4.12-2.4,11.06,11.06,0,0,1-1.13-5.4,13.4,13.4,0,0,1,.68-4.5q1.26-3.5,4.59-3.5A4.53,4.53,0,0,1,944,652.19Zm-1.94,10.25c.59-.89.89-2.54.89-5a12.3,12.3,0,0,0-.64-4.32,2.48,2.48,0,0,0-2.51-1.69,2.62,2.62,0,0,0-2.5,1.61,11,11,0,0,0-.79,4.73,11.52,11.52,0,0,0,.5,3.78,2.75,2.75,0,0,0,5,.85Z" style="fill:#666"/><path d="M1194.7,664a5.53,5.53,0,0,1-1.23-3.64h2a5,5,0,0,0,.56,2.17,2.94,2.94,0,0,0,2.72,1.21,3.56,3.56,0,0,0,2.45-.82,2.68,2.68,0,0,0,.92-2.1,2.44,2.44,0,0,0-1-2.22,4.86,4.86,0,0,0-2.7-.64h-.8v-1.7l.51,0h.44a4,4,0,0,0,1.78-.34,2.19,2.19,0,0,0,1.23-2.15,2.1,2.1,0,0,0-.82-1.77,3,3,0,0,0-1.9-.63,2.83,2.83,0,0,0-2.68,1.29,4.56,4.56,0,0,0-.46,2h-1.91a5.76,5.76,0,0,1,.69-2.92,4.32,4.32,0,0,1,4.15-2.15,5.6,5.6,0,0,1,3.64,1,3.68,3.68,0,0,1,1.29,3,3.38,3.38,0,0,1-.76,2.3,3.13,3.13,0,0,1-1.22.86,3.31,3.31,0,0,1,1.89,1.28,3.87,3.87,0,0,1,.68,2.33,4.74,4.74,0,0,1-1.45,3.59,5.71,5.71,0,0,1-4.11,1.38A4.83,4.83,0,0,1,1194.7,664Z" style="fill:#666"/><rect x="61.82" y="640.92" width="29.77" height="29.77" rx="3" style="fill:#fff;stroke:#e2e2e2;stroke-miterlimit:10;stroke-width:3px"/><path d="M361.11,764.09h2.09v7.73l7.89-7.73h3l-6.74,6.37,6.88,9.41h-2.8l-5.65-7.93-2.57,2.43v5.5h-2.09Z" style="fill:#666"/><path d="M381.7,772.91a1,1,0,0,0,.89-.56,1.78,1.78,0,0,0,.13-.74,1.58,1.58,0,0,0-.71-1.44,3.69,3.69,0,0,0-2-.45,2.56,2.56,0,0,0-2.14.82,2.68,2.68,0,0,0-.46,1.35h-1.81a3.36,3.36,0,0,1,1.38-3,5.72,5.72,0,0,1,3.08-.83,6.28,6.28,0,0,1,3.29.77,2.63,2.63,0,0,1,1.26,2.41v6.63a.85.85,0,0,0,.12.48.6.6,0,0,0,.52.18h.29l.34,0v1.43a6.57,6.57,0,0,1-.68.16,5.55,5.55,0,0,1-.65,0,1.6,1.6,0,0,1-1.45-.71,2.6,2.6,0,0,1-.33-1.06,4.94,4.94,0,0,1-1.7,1.34,5.25,5.25,0,0,1-2.44.57,3.6,3.6,0,0,1-2.61-1,3.22,3.22,0,0,1-1-2.43,3.15,3.15,0,0,1,1-2.48,4.7,4.7,0,0,1,2.62-1.08Zm-4.08,5.22a2.25,2.25,0,0,0,1.45.49,4.47,4.47,0,0,0,2-.47,2.66,2.66,0,0,0,1.61-2.57V774a3.24,3.24,0,0,1-.91.37,7.26,7.26,0,0,1-1.09.22l-1.17.15a4.44,4.44,0,0,0-1.58.44,1.7,1.7,0,0,0-.9,1.61A1.6,1.6,0,0,0,377.62,778.13Z" style="fill:#666"/><path d="M387.82,768.37h1.84v2a4.34,4.34,0,0,1,1.1-1.42,2.9,2.9,0,0,1,2-.83H393l.44,0v2.05a2.09,2.09,0,0,0-.32-.05h-.32a2.77,2.77,0,0,0-2.24.94,3.26,3.26,0,0,0-.79,2.17v6.61h-1.93Z" style="fill:#666"/><path d="M401.26,772.91a1,1,0,0,0,.89-.56,1.64,1.64,0,0,0,.13-.74,1.6,1.6,0,0,0-.7-1.44,3.74,3.74,0,0,0-2-.45,2.57,2.57,0,0,0-2.15.82,2.78,2.78,0,0,0-.46,1.35h-1.8a3.34,3.34,0,0,1,1.37-3,5.72,5.72,0,0,1,3.08-.83,6.28,6.28,0,0,1,3.29.77,2.63,2.63,0,0,1,1.26,2.41v6.63a.85.85,0,0,0,.12.48.6.6,0,0,0,.52.18h.29l.35,0v1.43a6.08,6.08,0,0,1-.69.16,5.43,5.43,0,0,1-.65,0,1.6,1.6,0,0,1-1.45-.71,2.94,2.94,0,0,1-.33-1.06,4.94,4.94,0,0,1-1.7,1.34,5.21,5.21,0,0,1-2.43.57,3.63,3.63,0,0,1-2.62-1,3.22,3.22,0,0,1-1-2.43,3.15,3.15,0,0,1,1-2.48,4.7,4.7,0,0,1,2.62-1.08Zm-4.07,5.22a2.21,2.21,0,0,0,1.45.49,4.42,4.42,0,0,0,2-.47,2.66,2.66,0,0,0,1.61-2.57V774a3.24,3.24,0,0,1-.91.37,7.26,7.26,0,0,1-1.09.22l-1.17.15a4.44,4.44,0,0,0-1.58.44,1.7,1.7,0,0,0-.9,1.61A1.58,1.58,0,0,0,397.19,778.13Z" style="fill:#666"/><path d="M407.71,765.16h2v3.21h1.84V770h-1.84v7.51a.79.79,0,0,0,.41.8,1.7,1.7,0,0,0,.75.12h.3l.38,0v1.53a3.34,3.34,0,0,1-.7.14,6.26,6.26,0,0,1-.78,0,2.09,2.09,0,0,1-1.83-.7,3,3,0,0,1-.49-1.8V770h-1.55v-1.58h1.55Z" style="fill:#666"/><path d="M420.55,768.69a4.41,4.41,0,0,1,1.74,1.48,5.1,5.1,0,0,1,.76,2,12.75,12.75,0,0,1,.18,2.54h-8.37a5,5,0,0,0,.82,2.82,2.74,2.74,0,0,0,2.37,1.06,3,3,0,0,0,2.4-1,3.25,3.25,0,0,0,.71-1.35h1.9a3.86,3.86,0,0,1-.5,1.42,4.93,4.93,0,0,1-.94,1.27,4.53,4.53,0,0,1-2.17,1.16,6.71,6.71,0,0,1-1.56.17,4.8,4.8,0,0,1-3.62-1.56,6.1,6.1,0,0,1-1.49-4.38,6.61,6.61,0,0,1,1.5-4.5,4.94,4.94,0,0,1,3.91-1.73A5.14,5.14,0,0,1,420.55,768.69Zm.69,4.51a5,5,0,0,0-.55-2,2.77,2.77,0,0,0-2.63-1.39,2.89,2.89,0,0,0-2.21,1,3.64,3.64,0,0,0-1,2.44Z" style="fill:#666"/><path d="M439.8,775.17a6.7,6.7,0,0,1-.59,3.1q-1.09,2-4.17,2a4.86,4.86,0,0,1-3-1,4.06,4.06,0,0,1-1.26-3.42v-1.13h2v1.13a2.86,2.86,0,0,0,.58,1.94,2.28,2.28,0,0,0,1.79.65,2.2,2.2,0,0,0,2.24-1.17,7.54,7.54,0,0,0,.32-2.72V764.09h2.12Z" style="fill:#666"/><path d="M444.72,768.37V776a3.36,3.36,0,0,0,.27,1.44,1.9,1.9,0,0,0,1.87,1,2.64,2.64,0,0,0,2.68-1.81,7.26,7.26,0,0,0,.39-2.65v-5.65h1.93v11.5H450l0-1.69a3.94,3.94,0,0,1-.92,1.1,4,4,0,0,1-2.63.91,3.38,3.38,0,0,1-3.29-1.65,4.92,4.92,0,0,1-.48-2.35v-7.82Z" style="fill:#666"/><path d="M455,768.37h1.84V770a5.21,5.21,0,0,1,1.73-1.45,4.65,4.65,0,0,1,2-.44,3.36,3.36,0,0,1,3.31,1.71,6.11,6.11,0,0,1,.47,2.67v7.38h-2v-7.25a3.87,3.87,0,0,0-.31-1.69,1.88,1.88,0,0,0-1.87-1.08,3.87,3.87,0,0,0-1.12.14,2.89,2.89,0,0,0-1.4,1,2.93,2.93,0,0,0-.63,1.17,7.86,7.86,0,0,0-.14,1.74v6H455Z" style="fill:#666"/><path d="M467.26,764.09h2v2.19h-2Zm0,4.33h2v11.45h-2Z" style="fill:#666"/><path d="M480.48,769.52a5.78,5.78,0,0,1,1.53,4.35,7.49,7.49,0,0,1-1.35,4.6,4.83,4.83,0,0,1-4.17,1.81,4.68,4.68,0,0,1-3.74-1.6,6.34,6.34,0,0,1-1.39-4.31,6.93,6.93,0,0,1,1.46-4.62,4.92,4.92,0,0,1,3.93-1.71A5.15,5.15,0,0,1,480.48,769.52Zm-1.2,7.64a7.29,7.29,0,0,0,.71-3.23,5.82,5.82,0,0,0-.51-2.62,2.87,2.87,0,0,0-2.79-1.59,2.76,2.76,0,0,0-2.55,1.35,6.36,6.36,0,0,0-.79,3.27,5.47,5.47,0,0,0,.79,3,2.81,2.81,0,0,0,2.53,1.23A2.64,2.64,0,0,0,479.28,777.16Z" style="fill:#666"/><path d="M484.43,768.37h1.84v2a4.4,4.4,0,0,1,1.11-1.42,2.87,2.87,0,0,1,2-.83h.18l.44,0v2.05a1.92,1.92,0,0,0-.32-.05h-.31a2.78,2.78,0,0,0-2.25.94,3.31,3.31,0,0,0-.78,2.17v6.61h-1.94Z" style="fill:#666"/><path d="M498,764.09h6.83a4.52,4.52,0,0,1,4,1.66,3.74,3.74,0,0,1,.7,2.25,3.56,3.56,0,0,1-.85,2.45,4.22,4.22,0,0,1-1.27.93,5.29,5.29,0,0,1,1.82,1,3.83,3.83,0,0,1,1.06,2.85,4.41,4.41,0,0,1-1,2.76,5.44,5.44,0,0,1-4.57,1.84H498Zm6,6.67a4.86,4.86,0,0,0,2.12-.37,2.16,2.16,0,0,0,1.2-2.13,2,2,0,0,0-1.27-2.08,5.8,5.8,0,0,0-2.13-.3h-3.85v4.88Zm.72,7.29a3.29,3.29,0,0,0,2.83-1.14,2.88,2.88,0,0,0,.53-1.74,2.31,2.31,0,0,0-1.55-2.34,6,6,0,0,0-2.18-.34h-4.28v5.56Z" style="fill:#666"/><path d="M512.55,764.09h1.93v15.78h-1.93Z" style="fill:#666"/><path d="M523.55,772.91a1,1,0,0,0,.89-.56,1.78,1.78,0,0,0,.13-.74,1.58,1.58,0,0,0-.71-1.44,3.69,3.69,0,0,0-2-.45,2.56,2.56,0,0,0-2.14.82,2.68,2.68,0,0,0-.46,1.35h-1.8a3.34,3.34,0,0,1,1.37-3,5.72,5.72,0,0,1,3.08-.83,6.28,6.28,0,0,1,3.29.77,2.63,2.63,0,0,1,1.26,2.41v6.63a.85.85,0,0,0,.12.48.6.6,0,0,0,.52.18h.29l.35,0v1.43a6.62,6.62,0,0,1-.69.16,5.43,5.43,0,0,1-.65,0,1.6,1.6,0,0,1-1.45-.71,2.76,2.76,0,0,1-.33-1.06,4.94,4.94,0,0,1-1.7,1.34,5.25,5.25,0,0,1-2.44.57,3.62,3.62,0,0,1-2.61-1,3.22,3.22,0,0,1-1-2.43,3.15,3.15,0,0,1,1-2.48,4.7,4.7,0,0,1,2.62-1.08Zm-4.07,5.22a2.21,2.21,0,0,0,1.45.49,4.46,4.46,0,0,0,2-.47,2.66,2.66,0,0,0,1.61-2.57V774a3.24,3.24,0,0,1-.91.37,7.26,7.26,0,0,1-1.09.22l-1.17.15a4.44,4.44,0,0,0-1.58.44,1.7,1.7,0,0,0-.9,1.61A1.58,1.58,0,0,0,519.48,778.13Z" style="fill:#666"/><path d="M537.22,769a4.53,4.53,0,0,1,1.46,3.26H536.8a3.42,3.42,0,0,0-.78-1.77,2.49,2.49,0,0,0-2-.7,2.71,2.71,0,0,0-2.64,1.8,7.2,7.2,0,0,0-.52,2.88,5.49,5.49,0,0,0,.73,2.91,2.85,2.85,0,0,0,4.21.45,4,4,0,0,0,1-2h1.88a4.55,4.55,0,0,1-4.91,4.41,4.42,4.42,0,0,1-3.6-1.65,6.34,6.34,0,0,1-1.34-4.12,7,7,0,0,1,1.47-4.72,4.76,4.76,0,0,1,3.75-1.68A5,5,0,0,1,537.22,769Z" style="fill:#666"/><path d="M540.57,764.09h1.86v9.17l5-4.89h2.47l-4.42,4.28,4.67,7.22h-2.47L544,774l-1.59,1.54v4.31h-1.86Z" style="fill:#666"/><path d="M682.07,769V767.5a7.9,7.9,0,0,0,2.92-.68,3.42,3.42,0,0,0,1.24-2.26h1.52v15.31h-2.06V769Z" style="fill:#666"/><path d="M694.92,776a2.68,2.68,0,0,0,1.53,2.29,3.64,3.64,0,0,0,1.59.32,3,3,0,0,0,2.55-1.09,4,4,0,0,0,.83-2.43,3.15,3.15,0,0,0-1-2.49,3.38,3.38,0,0,0-2.35-.88,3.67,3.67,0,0,0-1.72.38,3.79,3.79,0,0,0-1.22,1.08l-1.67-.1,1.17-8.28h8v1.87h-6.54l-.66,4.27a4.43,4.43,0,0,1,3-1,5.08,5.08,0,0,1,3.59,1.36,4.51,4.51,0,0,1,1.47,3.46,6,6,0,0,1-1.35,3.85,5.21,5.21,0,0,1-4.3,1.66,5.44,5.44,0,0,1-3.32-1.06,4.16,4.16,0,0,1-1.62-3.25Z" style="fill:#666"/><path d="M714.7,767a11,11,0,0,1,1,5.21,12.61,12.61,0,0,1-.94,5.19,4.57,4.57,0,0,1-4.42,2.94,4.44,4.44,0,0,1-4.13-2.4,11.06,11.06,0,0,1-1.13-5.4,13.4,13.4,0,0,1,.68-4.5q1.26-3.5,4.59-3.5A4.53,4.53,0,0,1,714.7,767Zm-1.94,10.25c.59-.89.89-2.54.89-5a12.3,12.3,0,0,0-.64-4.32,2.47,2.47,0,0,0-2.51-1.69,2.62,2.62,0,0,0-2.5,1.61,11,11,0,0,0-.79,4.73,11.52,11.52,0,0,0,.5,3.78,2.75,2.75,0,0,0,5,.85Z" style="fill:#666"/><path d="M931.53,765.76a4.54,4.54,0,0,1,1,2.76h-1.91a3.59,3.59,0,0,0-.55-1.43,2.44,2.44,0,0,0-2.11-1,2.91,2.91,0,0,0-2.58,1.5,8.59,8.59,0,0,0-1.07,4.29,4.35,4.35,0,0,1,1.68-1.46,4.93,4.93,0,0,1,2.06-.43,5.06,5.06,0,0,1,3.38,1.24,4.6,4.6,0,0,1,1.43,3.68,5.56,5.56,0,0,1-1.36,3.71,4.81,4.81,0,0,1-3.89,1.62,5,5,0,0,1-3.73-1.64q-1.56-1.64-1.56-5.51a15,15,0,0,1,.69-4.87q1.35-3.82,4.91-3.82C929.65,764.43,930.85,764.87,931.53,765.76Zm-1.45,11.77a4,4,0,0,0,.75-2.43,4.18,4.18,0,0,0-.67-2.25,2.69,2.69,0,0,0-2.46-1.07,3.23,3.23,0,0,0-2.19.83,3.13,3.13,0,0,0-.94,2.49,3.68,3.68,0,0,0,.85,2.46,3,3,0,0,0,2.37,1A2.68,2.68,0,0,0,930.08,777.53Z" style="fill:#666"/><path d="M944,767a11,11,0,0,1,1,5.21,12.62,12.62,0,0,1-.93,5.19,4.58,4.58,0,0,1-4.43,2.94,4.43,4.43,0,0,1-4.12-2.4,11.06,11.06,0,0,1-1.13-5.4,13.4,13.4,0,0,1,.68-4.5q1.26-3.5,4.59-3.5A4.53,4.53,0,0,1,944,767Zm-1.94,10.25c.59-.89.89-2.54.89-5a12.3,12.3,0,0,0-.64-4.32,2.48,2.48,0,0,0-2.51-1.69,2.62,2.62,0,0,0-2.5,1.61,11,11,0,0,0-.79,4.73,11.52,11.52,0,0,0,.5,3.78,2.75,2.75,0,0,0,5,.85Z" style="fill:#666"/><path d="M1204.45,764.75v1.69a17.55,17.55,0,0,0-2,2.5,25.62,25.62,0,0,0-2.18,3.84,26,26,0,0,0-1.41,3.67q-.32,1.06-.81,3.42h-2.14a26.27,26.27,0,0,1,3.23-8.76,27.61,27.61,0,0,1,3.09-4.42h-8.51v-1.94Z" style="fill:#666"/><rect x="61.82" y="755.68" width="29.77" height="29.77" rx="3" style="fill:#fff;stroke:#e2e2e2;stroke-miterlimit:10;stroke-width:3px"/><path d="M1287.66,441.14a.89.89,0,0,1,0,1.24l-.81.81a1,1,0,0,1-.62.28.81.81,0,0,1-.63-.24l-5.68-5.69-5.69,5.69a.8.8,0,0,1-.62.24.94.94,0,0,1-.62-.28l-.81-.81a.87.87,0,0,1,0-1.24l7.11-7.12a.83.83,0,0,1,.63-.29.81.81,0,0,1,.62.29Z" style="fill:#666"/><path d="M1298.18,163.64a.85.85,0,0,1-.26-.62.84.84,0,0,1,.26-.62l.81-.81a.94.94,0,0,1,.62-.28.8.8,0,0,1,.62.24l5.69,5.69,5.68-5.69a.81.81,0,0,1,.63-.24,1,1,0,0,1,.62.28l.81.81a.83.83,0,0,1,.25.62.84.84,0,0,1-.25.62l-7.12,7.12a.81.81,0,0,1-.62.29.83.83,0,0,1-.63-.29Z" style="fill:#666"/><line x1="61.82" y1="600.3" x2="1326.48" y2="600.3" style="fill:#fff;stroke:#e2e2e2;stroke-miterlimit:10;stroke-width:3px"/><line x1="61.82" y1="713.18" x2="1326.48" y2="713.18" style="fill:#fff;stroke:#e2e2e2;stroke-miterlimit:10;stroke-width:3px"/><rect x="1301.2" y="252.22" width="15.99" height="53.89" rx="3" style="fill:#e6e7e8"/><path d="M1301.46,315.8a.87.87,0,0,1,0-1.24l.81-.81a1,1,0,0,1,.62-.28.82.82,0,0,1,.63.24l5.68,5.69,5.68-5.69a.82.82,0,0,1,.63-.24,1,1,0,0,1,.62.28l.81.81a.89.89,0,0,1,0,1.24l-7.12,7.12a.81.81,0,0,1-1.24,0Z" style="fill:#666"/><path d="M1316.94,242.18a.91.91,0,0,1,0,1.25l-.81.81a.91.91,0,0,1-.62.27.82.82,0,0,1-.63-.24l-5.68-5.68-5.68,5.68a.82.82,0,0,1-.63.24.91.91,0,0,1-.62-.27l-.81-.81a.88.88,0,0,1,0-1.25l7.12-7.11a.79.79,0,0,1,1.24,0Z" style="fill:#666"/></g></g></svg>