<svg id="Layer_1" data-name="Layer 1" xmlns="http://www.w3.org/2000/svg" xmlns:xlink="http://www.w3.org/1999/xlink" viewBox="0 0 510.6 95.78"><defs><style>.cls-1{fill:none;}.cls-2{clip-path:url(#clip-path);}.cls-3{fill:url(#linear-gradient);}.cls-4{fill:#67675d;}.cls-5{fill:#1e4287;}</style><clipPath id="clip-path"><path class="cls-1" d="M29,83.69a1.66,1.66,0,0,0-.06-.21l10.84-5.57,12.34,8.65s0,.09,0,.13ZM56.18,85l2.55-10.73,14.62,2L57.07,85.7a2.91,2.91,0,0,0-.89-.66m-21.86-11,4.9,3.44L28.68,82.91l-.15-.18,4.34-8.33a2.58,2.58,0,0,0,.29,0,2,2,0,0,0,1.16-.38m6.77,3.19,7-3.61a2,2,0,0,0,1.58.8c.11,0,.21,0,.32,0L53.64,85a2.73,2.73,0,0,0-.75.5Zm9.53-3a2,2,0,0,0,.83-.85l6,.8-2.52,10.6h0a2.76,2.76,0,0,0-.65.07ZM35.05,73a1.42,1.42,0,0,0,.05-.22H47.76a2.29,2.29,0,0,0,.07.28L40.5,76.83ZM13,69.72c.07-.12.14-.24.2-.37l18,3.39a1.87,1.87,0,0,0,.52,1.07L27.4,82.14a2.77,2.77,0,0,0-.3,0,1.93,1.93,0,0,0-.89.23Zm38.6,2.35s0-.07,0-.11l7.16-3.21-1,4.14Zm7.4,1,1.19-5,3.06-1.38L73.18,75Zm2-8.25,1.73,1.44-2.33,1Zm3.57,1.32L83,57.86a2.83,2.83,0,0,0,.64.77l-8,15.31a1.36,1.36,0,0,0-.29,0,2,2,0,0,0-1,.29ZM50.34,70.6V57.46a2.94,2.94,0,0,0,1.17-.55l8.39,7-1,4.06-7.59,3.41a2.07,2.07,0,0,0-1-.77M13.46,68.09a2.94,2.94,0,0,0-1.36-2.4l4.67-12.75L31.69,71.17a1.24,1.24,0,0,0-.23.32ZM52.33,55.93a3,3,0,0,0,.33-1.36,3.24,3.24,0,0,0-.15-.94l10.24-4.7a2.25,2.25,0,0,0,.59.56l-3.11,13Zm9,7.49,3.25-13.64a2,2,0,0,0,1.48-.93l16.61,6.71a3.1,3.1,0,0,0-.11.81,3,3,0,0,0,.14.91L64,65.67ZM20.75,44.62,31.3,69.68,17,52.25l2.79-7.61.39,0a3.19,3.19,0,0,0,.54-.05m45.56,3.64a2.1,2.1,0,0,0,0-.43A2,2,0,0,0,66,46.72l5.34-5,11.75,13a3.45,3.45,0,0,0-.2.32Zm-55.61,17-3.59-24,.08,0,8.64,10.56L10.9,65.25l-.2,0m-3-24.41a1.7,1.7,0,0,0,.26-.38l9.32,1.45a2.94,2.94,0,0,0,1.36,2.31l-2.53,6.9ZM65,46V34.88l.13,0,5.77,6.36-5.36,5.06A2,2,0,0,0,65,46m7.26-5.17,9.44-8.93a2,2,0,0,0,.74.36L84.6,53.55a3.87,3.87,0,0,0-.55.25ZM66.1,34a1.88,1.88,0,0,0,.25-.91l14.7-2.15a2.38,2.38,0,0,0,.24.51l-9.43,8.91Zm-1.45-2.89-.57-2.89,16.51,2.14-14.34,2.1a2,2,0,0,0-1.6-1.35m-42.73,13a2.94,2.94,0,0,0,.41-4.48l9.85-11.95a1.5,1.5,0,0,0,.34.16V69.3ZM52.65,26.7,62.74,28l.66,3.32a2.12,2.12,0,0,0-.42.32ZM33.8,70.6V27.85a2,2,0,0,0,1.3-1.54H46.75A3,3,0,0,0,52,27.82l10.41,5a1.79,1.79,0,0,0,0,.23,2,2,0,0,0,1.33,1.85V46a2,2,0,0,0-1.33,1.86,2.09,2.09,0,0,0,.07.51L52.24,53.05a3,3,0,1,0-3.18,4.41V70.6a2,2,0,0,0-1.3,1.54H35.1a2,2,0,0,0-1.3-1.54M8.14,39.18a1.93,1.93,0,0,0-.36-.83L19.92,20.47l.36.11L19.67,38.8a3,3,0,0,0-2.21,1.83ZM21,38.84l.6-18.21A3,3,0,0,0,23,19.87l8.23,5.61a1.77,1.77,0,0,0-.08.52,2,2,0,0,0,.49,1.29L21.84,39.23a3.09,3.09,0,0,0-.89-.39m2.87-20,23,6.63,0,.19H35.1A2,2,0,0,0,32,24.42Zm.11-.63c0-.13,0-.26,0-.38l18.57-3.27,5.18,9.21A3,3,0,0,0,47,24.87Zm28.73,7.83V26a3,3,0,0,0-1-2.26l7-10.25a3,3,0,0,0,1.33.34l2.68,13.52ZM64,27.53,61.19,13.59a3.67,3.67,0,0,0,.6-.36L81.09,29.6a.83.83,0,0,0,0,.15ZM43.87,14.35,57.26,12a2.86,2.86,0,0,0,.82,1.12l-7,10.26A3,3,0,0,0,49.7,23a3.16,3.16,0,0,0-.87.13ZM38.43,9.84a1.92,1.92,0,0,0,1.39.58,2,2,0,0,0,.35,0l1.71,3L25.29,16.32Zm2.85-.09a2,2,0,0,0,.3-.45L55.63,11,43.21,13.17Zm-3.43-1.3a1.94,1.94,0,0,0,0,.24L23.32,15.87a3,3,0,1,0-4.46,3.88L6.72,37.64a1.7,1.7,0,0,0-.51-.08,2,2,0,0,0-.36,3.9l3.59,24a3,3,0,0,0,1.06,5.73,3,3,0,0,0,1.65-.5L25.32,83.26a1.89,1.89,0,0,0-.18.82,2,2,0,0,0,3.72.88l23.08,3a3,3,0,0,0,5.91-.26,3,3,0,0,0-.14-.9L74,77.36a2,2,0,0,0,2.72-2.83l8-15.31a2.88,2.88,0,0,0,.78.11,3,3,0,0,0,.35-5.9L83.74,32.1a2,2,0,0,0-.82-3.76,1.91,1.91,0,0,0-1,.29L62.62,12.26A3,3,0,1,0,57.2,9.89L41.74,8a2,2,0,0,0-3.89.42"/></clipPath><linearGradient id="linear-gradient" x1="-368.85" y1="441.43" x2="-368.32" y2="441.43" gradientTransform="matrix(157.52, 0, 0, -157.52, 58104.28, 69580.9)" gradientUnits="userSpaceOnUse"><stop offset="0" stop-color="#1f4287"/><stop offset="0.11" stop-color="#1f4287"/><stop offset="0.25" stop-color="#1d498e"/><stop offset="0.45" stop-color="#185ca0"/><stop offset="0.69" stop-color="#0f7bbe"/><stop offset="0.95" stop-color="#02a5e7"/><stop offset="1" stop-color="#00aeef"/></linearGradient></defs><title>Artboard 1</title><g class="cls-2"><rect class="cls-3" x="4.24" y="6.48" width="84.25" height="84.19"/></g><path class="cls-4" d="M115.15,23.25h22.56c9.11,0,15.09,5.34,15.09,14.52s-6,14.52-15.09,14.52H120V74.06h-4.84ZM120,48.16h16.66c6.76,0,11.31-3.35,11.31-10.39s-4.55-10.39-11.31-10.39H120Z"/><path class="cls-4" d="M158.57,56.91c0,6.55,3.55,14.45,12.09,14.45,6.55,0,10.11-3.77,11.53-9.4h4.49c-1.92,8.33-6.69,13.17-16,13.17-11.67,0-16.58-9-16.58-19.43,0-9.68,4.91-19.43,16.58-19.43s16.52,10.32,16.16,20.64Zm23.77-3.77c-.22-6.76-4.49-13.1-11.68-13.1-7.4,0-11.31,6.41-12.09,13.1Z"/><path class="cls-4" d="M192.27,37.34h4.12V46h.14a13.49,13.49,0,0,1,13.88-9.11v4.49c-8.11-.36-13.66,5.48-13.66,13.16V74.06h-4.48Z"/><path class="cls-4" d="M231.9,41.11h-7.26v33h-4.48V41.11H213.9V37.34h6.26V34c0-6.33,1.64-10.74,8.9-10.74a23.36,23.36,0,0,1,3.77.28v3.85a17.86,17.86,0,0,0-3.28-.36c-4.91,0-4.91,3.2-4.91,7.12v3.2h7.26Z"/><path class="cls-4" d="M237,56.91c0,6.55,3.56,14.45,12.1,14.45,6.55,0,10.11-3.77,11.53-9.4h4.48c-1.92,8.33-6.69,13.17-16,13.17-11.67,0-16.58-9-16.58-19.43,0-9.68,4.91-19.43,16.58-19.43s16.51,10.32,16.16,20.64Zm23.77-3.77c-.21-6.76-4.48-13.1-11.67-13.1-7.4,0-11.31,6.41-12.1,13.1Z"/><path class="cls-4" d="M296.64,48.87c-1.21-5.48-4.48-8.83-10.39-8.83-8.54,0-12.88,7.9-12.88,15.66s4.34,15.66,12.88,15.66c5.48,0,10.11-4.42,10.68-10.47h4.48c-1.21,8.9-6.9,14.24-15.16,14.24-11.17,0-17.36-8.9-17.36-19.43s6.19-19.43,17.36-19.43c7.9,0,13.81,4.13,14.88,12.6Z"/><path class="cls-4" d="M313.3,37.34h7.47v3.77H313.3V65.88c0,2.92.43,4.62,3.63,4.84a33,33,0,0,0,3.84-.22v3.85c-1.35,0-2.63.14-4,.14-6,0-8.05-2-8-8.26V41.11h-6.4V37.34h6.4v-11h4.49Z"/><polygon class="cls-5" points="328.95 23.25 344.68 23.25 356.57 58.19 356.71 58.19 367.95 23.25 383.68 23.25 383.68 74.06 373.22 74.06 373.22 38.05 373.08 38.05 360.62 74.06 352.01 74.06 339.56 38.41 339.42 38.41 339.42 74.06 328.95 74.06 328.95 23.25"/><rect class="cls-5" x="391.3" y="37.27" width="10.11" height="36.79"/><path class="cls-5" d="M408.61,37.27h9.6v5.12h.22a13,13,0,0,1,11.24-6.12c10.75,0,13.45,6,13.45,15.16V74.06H433V53.28c0-6.05-1.71-9-6.48-9-5.48,0-7.83,3.06-7.83,10.54V74.06h-10.1Z"/><path class="cls-5" d="M476.4,69.37h-.14c-2.35,4-6.41,5.69-11.18,5.69-11.1,0-16.51-9.47-16.51-19.71,0-9.9,5.48-19.08,16.3-19.08,4.34,0,8.61,1.85,10.89,5.48h.14V23.25H486V74.06H476.4Zm-8.83-25.48c-6.61,0-8.89,5.76-8.89,11.74,0,5.76,2.63,11.81,8.89,11.81,6.62,0,8.69-5.83,8.69-11.88s-2.14-11.67-8.69-11.67"/><path class="cls-5" d="M402,27.69a5.68,5.68,0,1,0-5.68,5.68A5.68,5.68,0,0,0,402,27.69"/><path class="cls-5" d="M498.57,39a8.07,8.07,0,0,1-3.25-.66,8.54,8.54,0,0,1-4.45-4.45,8.31,8.31,0,0,1,0-6.49,8.36,8.36,0,0,1,1.8-2.64A8.52,8.52,0,0,1,495.32,23a8.31,8.31,0,0,1,6.49,0,8.64,8.64,0,0,1,2.65,1.78,8.31,8.31,0,0,1,1.78,2.64,8.42,8.42,0,0,1,0,6.49,8.35,8.35,0,0,1-1.78,2.65,8.52,8.52,0,0,1-2.65,1.8A8,8,0,0,1,498.57,39Zm0-1.1a6.85,6.85,0,0,0,2.81-.57,6.52,6.52,0,0,0,2.21-1.54A7,7,0,0,0,505,33.49a7.71,7.71,0,0,0,.53-2.87,7.58,7.58,0,0,0-.53-2.83,6.93,6.93,0,0,0-1.45-2.29A6.63,6.63,0,0,0,501.38,24a7.33,7.33,0,0,0-5.62,0,6.62,6.62,0,0,0-2.23,1.53,6.82,6.82,0,0,0-1.47,2.29,7.58,7.58,0,0,0-.53,2.83,7.71,7.71,0,0,0,.53,2.87,6.93,6.93,0,0,0,1.47,2.29,6.5,6.5,0,0,0,2.23,1.54A6.89,6.89,0,0,0,498.57,37.89Zm4.16-2.6h-1.36L498.71,31h-2.09v4.29h-1.15V26h4.07a3.88,3.88,0,0,1,2.58.66,2.33,2.33,0,0,1,.72,1.81,2.73,2.73,0,0,1-.22,1.16,1.84,1.84,0,0,1-.61.78,2.63,2.63,0,0,1-.94.44,4.69,4.69,0,0,1-1.15.17Zm-4.38-5.19h1.06a4.54,4.54,0,0,0,1.07-.13,1.6,1.6,0,0,0,.81-.49,1.53,1.53,0,0,0,.32-1.05,1.55,1.55,0,0,0-.21-.87,1.34,1.34,0,0,0-.54-.49,2.44,2.44,0,0,0-.75-.22,7.55,7.55,0,0,0-.83-.05h-2.66v3.3Z"/></svg>