<?xml version="1.0" encoding="utf-8"?>
<!-- Generator: Adobe Illustrator 22.1.0, SVG Export Plug-In . SVG Version: 6.00 Build 0)  -->
<svg version="1.1" id="Layer_1" xmlns="http://www.w3.org/2000/svg" xmlns:xlink="http://www.w3.org/1999/xlink" x="0px" y="0px"
	 viewBox="0 0 500 500" style="enable-background:new 0 0 500 500;" xml:space="preserve">
<style type="text/css">
	.st0{opacity:0.15;}
	.st1{fill:none;stroke:#000000;stroke-width:5;}
	.st2{fill:none;stroke:#FFFFFF;stroke-width:5;stroke-linecap:round;stroke-linejoin:round;}
</style>
<g>
	<g class="st0">
		<line class="st1" x1="337.2" y1="337.5" x2="173.9" y2="174.1"/>
		<line class="st1" x1="337.2" y1="174.1" x2="173.9" y2="337.5"/>
		<line class="st1" x1="371" y1="255.8" x2="140" y2="255.8"/>
		<line class="st1" x1="255.5" y1="140.3" x2="255.5" y2="371.3"/>
		<g>
			<path class="st1" d="M337.8,174.7c0,0-8.3,57.8,32.7,81.2"/>
			<path class="st1" d="M310.3,201.7c0,0-5.5,38.1,21.6,53.6"/>
			<path class="st1" d="M286.1,225.3c0,0-3.1,21.4,12.1,30.1"/>
		</g>
		<g>
			<path class="st1" d="M337.8,337.2c0,0-8.3-57.8,32.7-81.2"/>
			<path class="st1" d="M310.3,310.3c0,0-5.5-38.1,21.6-53.6"/>
			<path class="st1" d="M286.1,286.7c0,0-3.1-21.4,12.1-30.1"/>
		</g>
		<g>
			<path class="st1" d="M173.7,174.7c0,0,8.3,57.8-32.7,81.2"/>
			<path class="st1" d="M201.3,201.7c0,0,5.5,38.1-21.6,53.6"/>
			<path class="st1" d="M225.4,225.3c0,0,3.1,21.4-12.1,30.1"/>
		</g>
		<g>
			<path class="st1" d="M173.7,337.2c0,0,8.3-57.8-32.7-81.2"/>
			<path class="st1" d="M201.3,310.3c0,0,5.5-38.1-21.6-53.6"/>
			<path class="st1" d="M225.4,286.7c0,0,3.1-21.4-12.1-30.1"/>
		</g>
		<g>
			<path class="st1" d="M174.5,173.9c0,0,57.8,8.3,81.2-32.7"/>
			<path class="st1" d="M201.5,201.5c0,0,38.1,5.5,53.6-21.6"/>
			<path class="st1" d="M225.1,225.6c0,0,21.4,3.1,30.1-12.1"/>
		</g>
		<g>
			<path class="st1" d="M337,173.9c0,0-57.8,8.3-81.3-32.7"/>
			<path class="st1" d="M310.1,201.5c0,0-38.1,5.5-53.6-21.6"/>
			<path class="st1" d="M286.5,225.6c0,0-21.4,3.1-30.1-12.1"/>
		</g>
		<g>
			<path class="st1" d="M174.5,338c0,0,57.8-8.3,81.2,32.7"/>
			<path class="st1" d="M201.5,310.5c0,0,38.1-5.5,53.6,21.6"/>
			<path class="st1" d="M225.1,286.3c0,0,21.4-3.1,30.1,12.1"/>
		</g>
		<g>
			<path class="st1" d="M337,338c0,0-57.8-8.3-81.3,32.7"/>
			<path class="st1" d="M310.1,310.5c0,0-38.1-5.5-53.6,21.6"/>
			<path class="st1" d="M286.5,286.3c0,0-21.4-3.1-30.1,12.1"/>
		</g>
	</g>
	<line class="st2" x1="327.2" y1="327.5" x2="163.9" y2="164.1"/>
	<line class="st2" x1="327.2" y1="164.1" x2="163.9" y2="327.5"/>
	<line class="st2" x1="361" y1="245.8" x2="130" y2="245.8"/>
	<line class="st2" x1="245.5" y1="130.3" x2="245.5" y2="361.3"/>
	<g>
		<path class="st2" d="M327.8,164.7c0,0-8.3,57.8,32.7,81.2"/>
		<path class="st2" d="M300.3,191.7c0,0-5.5,38.1,21.6,53.6"/>
		<path class="st2" d="M276.1,215.3c0,0-3.1,21.4,12.1,30.1"/>
	</g>
	<g>
		<path class="st2" d="M327.8,327.2c0,0-8.3-57.8,32.7-81.2"/>
		<path class="st2" d="M300.3,300.3c0,0-5.5-38.1,21.6-53.6"/>
		<path class="st2" d="M276.1,276.7c0,0-3.1-21.4,12.1-30.1"/>
	</g>
	<g>
		<path class="st2" d="M163.7,164.7c0,0,8.3,57.8-32.7,81.2"/>
		<path class="st2" d="M191.3,191.7c0,0,5.5,38.1-21.6,53.6"/>
		<path class="st2" d="M215.4,215.3c0,0,3.1,21.4-12.1,30.1"/>
	</g>
	<g>
		<path class="st2" d="M163.7,327.2c0,0,8.3-57.8-32.7-81.2"/>
		<path class="st2" d="M191.3,300.3c0,0,5.5-38.1-21.6-53.6"/>
		<path class="st2" d="M215.4,276.7c0,0,3.1-21.4-12.1-30.1"/>
	</g>
	<g>
		<path class="st2" d="M164.5,163.9c0,0,57.8,8.3,81.2-32.7"/>
		<path class="st2" d="M191.5,191.5c0,0,38.1,5.5,53.6-21.6"/>
		<path class="st2" d="M215.1,215.6c0,0,21.4,3.1,30.1-12.1"/>
	</g>
	<g>
		<path class="st2" d="M327,163.9c0,0-57.8,8.3-81.3-32.7"/>
		<path class="st2" d="M300.1,191.5c0,0-38.1,5.5-53.6-21.6"/>
		<path class="st2" d="M276.5,215.6c0,0-21.4,3.1-30.1-12.1"/>
	</g>
	<g>
		<path class="st2" d="M164.5,328c0,0,57.8-8.3,81.2,32.7"/>
		<path class="st2" d="M191.5,300.5c0,0,38.1-5.5,53.6,21.6"/>
		<path class="st2" d="M215.1,276.3c0,0,21.4-3.1,30.1,12.1"/>
	</g>
	<g>
		<path class="st2" d="M327,328c0,0-57.8-8.3-81.3,32.7"/>
		<path class="st2" d="M300.1,300.5c0,0-38.1-5.5-53.6,21.6"/>
		<path class="st2" d="M276.5,276.3c0,0-21.4-3.1-30.1,12.1"/>
	</g>
</g>
</svg>
